<svg width="143" height="22" viewBox="0 0 143 22" fill="none" xmlns="http://www.w3.org/2000/svg">
<g clip-path="url(#clip0_1_7756)">
<path d="M10.6757 9.62177L17.2325 2H15.6788L9.98548 8.61788L5.43827 2H0.193604L7.06988 12.0074L0.193604 20H1.74745L7.7597 13.0113L12.5619 20H17.8066L10.6753 9.62177H10.6757ZM8.5475 12.0956L7.85079 11.0991L2.30732 3.16971H4.69393L9.16758 9.56895L9.86429 10.5655L15.6795 18.8835H13.2929L8.5475 12.096V12.0956Z" fill="white"/>
</g>
<g clip-path="url(#clip1_1_7756)">
<path d="M80 11C80 5.20039 75.2996 0.5 69.5 0.5C63.7004 0.5 59 5.20039 59 11C59 16.7996 63.7004 21.5 69.5 21.5C69.5615 21.5 69.623 21.5 69.6846 21.4959V13.3256H67.4287V10.6965H69.6846V8.76055C69.6846 6.51699 71.0545 5.29473 73.0561 5.29473C74.0158 5.29473 74.8402 5.36445 75.0781 5.39727V7.74336H73.7C72.6131 7.74336 72.3998 8.26016 72.3998 9.01895V10.6924H75.0043L74.6639 13.3215H72.3998V21.0939C76.7885 19.8348 80 15.7947 80 11Z" fill="white"/>
</g>
<g clip-path="url(#clip2_1_7756)">
<path d="M142.978 6.46806C142.927 5.29911 142.738 4.49548 142.467 3.79911C142.188 3.05994 141.758 2.39816 141.195 1.84802C140.645 1.28931 139.979 0.855178 139.248 0.580191C138.548 0.309402 137.748 0.12037 136.579 0.0688306C135.402 0.0129267 135.028 0 132.041 0C129.054 0 128.68 0.0129267 127.507 0.0644657C126.338 0.116005 125.534 0.305205 124.838 0.575827C124.099 0.855178 123.437 1.28495 122.887 1.84802C122.328 2.39816 121.894 3.0643 121.619 3.79491C121.348 4.49548 121.159 5.29475 121.107 6.46369C121.052 7.64137 121.039 8.01524 121.039 11.0021C121.039 13.9891 121.052 14.3629 121.103 15.5362C121.155 16.7052 121.344 17.5088 121.615 18.2052C121.894 18.9444 122.328 19.6061 122.887 20.1563C123.437 20.715 124.103 21.1491 124.833 21.4241C125.534 21.6949 126.333 21.8839 127.502 21.9355C128.676 21.9872 129.05 21.9999 132.037 21.9999C135.023 21.9999 135.397 21.9872 136.571 21.9355C137.74 21.8839 138.543 21.6949 139.239 21.4241C140.718 20.8525 141.887 19.6835 142.458 18.2052C142.729 17.5046 142.918 16.7052 142.97 15.5362C143.021 14.3629 143.034 13.9891 143.034 11.0021C143.034 8.01524 143.03 7.64137 142.978 6.46806ZM140.997 15.4503C140.95 16.5247 140.769 17.1049 140.619 17.4917C140.249 18.4501 139.489 19.2108 138.53 19.5805C138.143 19.7309 137.559 19.9113 136.489 19.9585C135.328 20.0102 134.98 20.023 132.045 20.023C129.11 20.023 128.757 20.0102 127.601 19.9585C126.527 19.9113 125.947 19.7309 125.56 19.5805C125.083 19.4042 124.649 19.1248 124.296 18.7595C123.931 18.4028 123.652 17.973 123.475 17.4961C123.325 17.1093 123.144 16.5247 123.097 15.4546C123.046 14.2943 123.033 13.9461 123.033 11.0107C123.033 8.07534 123.046 7.72296 123.097 6.56694C123.144 5.49251 123.325 4.91232 123.475 4.52553C123.652 4.04841 123.931 3.61444 124.301 3.2619C124.657 2.89659 125.087 2.61724 125.564 2.44114C125.951 2.29072 126.535 2.11024 127.606 2.0629C128.766 2.01136 129.114 1.99844 132.049 1.99844C134.989 1.99844 135.337 2.01136 136.493 2.0629C137.568 2.11024 138.148 2.29072 138.535 2.44114C139.012 2.61724 139.446 2.89659 139.798 3.2619C140.163 3.61864 140.443 4.04841 140.619 4.52553C140.769 4.91232 140.95 5.49671 140.997 6.56694C141.049 7.72732 141.062 8.07534 141.062 11.0107C141.062 13.9461 141.049 14.2899 140.997 15.4503Z" fill="white"/>
<path d="M132.041 5.35059C128.921 5.35059 126.389 7.88187 126.389 11.0021C126.389 14.1223 128.921 16.6536 132.041 16.6536C135.161 16.6536 137.692 14.1223 137.692 11.0021C137.692 7.88187 135.161 5.35059 132.041 5.35059ZM132.041 14.6681C130.017 14.6681 128.375 13.0264 128.375 11.0021C128.375 8.97779 130.017 7.3361 132.041 7.3361C134.065 7.3361 135.707 8.97779 135.707 11.0021C135.707 13.0264 134.065 14.6681 132.041 14.6681Z" fill="white"/>
<path d="M139.235 5.12796C139.235 5.85656 138.644 6.44732 137.916 6.44732C137.187 6.44732 136.596 5.85656 136.596 5.12796C136.596 4.39919 137.187 3.80859 137.916 3.80859C138.644 3.80859 139.235 4.39919 139.235 5.12796Z" fill="white"/>
</g>
<defs>
<clipPath id="clip0_1_7756">
<rect width="18" height="18" fill="white" transform="translate(0 2)"/>
</clipPath>
<clipPath id="clip1_1_7756">
<rect width="21" height="21" fill="white" transform="translate(59 0.5)"/>
</clipPath>
<clipPath id="clip2_1_7756">
<rect width="22" height="22" fill="white" transform="translate(121)"/>
</clipPath>
</defs>
</svg>
