<svg width="725" height="63" viewBox="0 0 725 63" fill="none" xmlns="http://www.w3.org/2000/svg">
<path d="M31.1881 11.673C28.2771 13.7204 24.9777 16.0411 23.21 19.8804C20.1396 26.5782 29.4931 33.8845 29.8927 34.1923C29.9857 34.2639 30.0968 34.2995 30.2077 34.2995C30.3255 34.2995 30.4434 34.2592 30.5393 34.179C30.725 34.0237 30.7776 33.7599 30.6661 33.5451C30.6322 33.4798 27.2749 26.9584 27.3996 22.2797C27.4438 20.6504 29.7242 18.8019 32.1384 16.8448C34.3496 15.0523 36.856 13.0206 38.3225 10.644C41.5419 5.41251 37.9637 0.268419 37.9272 0.217193C37.7851 0.0176588 37.5227 -0.0548426 37.2984 0.043685C37.0743 0.142419 36.9502 0.384917 37.0014 0.624316C37.0086 0.658191 37.7045 4.05997 35.7683 7.56462C34.9703 9.01279 33.2177 10.2457 31.1881 11.673Z" fill="#9CA3AF"/>
<path d="M43.4525 13.9802C43.6578 13.8255 43.7181 13.5434 43.5938 13.3182C43.4694 13.0931 43.1986 12.9937 42.9582 13.085C42.4637 13.273 30.8484 17.7501 30.8484 23.16C30.8484 26.889 32.4414 28.8591 33.6045 30.2978C34.0608 30.8619 34.4547 31.3492 34.5844 31.7652C34.9498 32.964 34.0841 35.1308 33.7201 35.8645C33.6152 36.0756 33.6666 36.3311 33.8451 36.4852C33.9416 36.5684 34.062 36.6106 34.1826 36.6106C34.2853 36.6106 34.3884 36.58 34.4774 36.518C34.6771 36.379 39.3583 33.0694 38.5187 29.0818C38.2059 27.5663 37.4611 26.4587 36.8038 25.4815C35.7857 23.9677 35.0504 22.8739 36.166 20.854C37.4735 18.4984 43.3928 14.025 43.4525 13.9802Z" fill="#9CA3AF"/>
<path d="M13.2178 36.6969C13.0187 37.2928 13.1127 37.8846 13.4895 38.4078C14.7486 40.1557 19.2086 41.1184 26.0485 41.1184C26.0489 41.1184 26.0493 41.1184 26.0493 41.1184C26.9762 41.1184 27.9546 41.1003 28.9568 41.0643C39.8926 40.6727 43.9487 37.2659 44.116 37.1211C44.2984 36.9633 44.3472 36.7004 44.2338 36.4876C44.1204 36.2751 43.8758 36.1683 43.6422 36.2325C39.7909 37.2841 32.599 37.6574 27.6107 37.6574C22.0289 37.6574 19.1863 37.2554 18.4904 36.9586C18.8475 36.4682 21.05 35.5926 23.7793 35.0558C24.0402 35.0046 24.2195 34.7637 24.1936 34.4991C24.1678 34.2345 23.9456 34.0327 23.6797 34.0327C22.0797 34.0329 14.0565 34.1614 13.2178 36.6969Z" fill="#9CA3AF"/>
<path d="M49.8112 33.188C47.5556 33.188 45.4167 34.3183 45.3267 34.3664C45.118 34.4781 45.0123 34.7173 45.0695 34.947C45.1269 35.1765 45.3333 35.3378 45.57 35.338C45.6179 35.3382 50.3813 35.3771 50.8128 38.0987C51.1949 40.4466 46.3057 44.251 44.3895 45.5188C44.1826 45.6557 44.1022 45.9206 44.1983 46.1492C44.2798 46.344 44.4697 46.4659 44.6742 46.4659C44.7099 46.4659 44.746 46.4621 44.782 46.4543C45.2368 46.3572 55.9061 44.0062 54.7781 37.794C54.0898 33.9869 51.6971 33.188 49.8112 33.188Z" fill="#9CA3AF"/>
<path d="M42.4941 44.7589C42.5313 44.5598 42.4484 44.3574 42.2828 44.2413L39.7246 42.4494C39.5998 42.362 39.4422 42.3346 39.2958 42.3734C39.2691 42.3804 36.5938 43.0835 32.7097 43.5148C31.1682 43.6877 29.4416 43.779 27.7162 43.779C23.8331 43.779 21.2941 43.3227 20.9244 42.9881C20.8754 42.8941 20.8909 42.8514 20.8996 42.8276C20.9667 42.6407 21.3268 42.4186 21.5589 42.3309C21.8153 42.236 21.9535 41.9576 21.8737 41.6961C21.7942 41.4346 21.5247 41.2805 21.2586 41.3445C18.6923 41.9638 17.4375 42.8299 17.5288 43.9185C17.691 45.8483 22.1615 46.839 25.9408 47.1011C26.4843 47.1383 27.0722 47.1573 27.6875 47.1573C27.6879 47.1573 27.6881 47.1573 27.6885 47.1573C33.973 47.1573 42.0295 45.1855 42.1101 45.1654C42.3067 45.1169 42.4567 44.9581 42.4941 44.7589Z" fill="#9CA3AF"/>
<path d="M23.207 48.9009C23.4008 48.7747 23.4867 48.5353 23.4179 48.3147C23.3493 48.0941 23.143 47.9493 22.9112 47.9522C22.5673 47.9613 19.546 48.0976 19.3345 50.0213C19.2705 50.5961 19.4351 51.1212 19.824 51.582C20.9089 52.8676 23.837 53.6317 28.7746 53.9182C29.3587 53.9531 29.9519 53.9706 30.5383 53.9706C36.8156 53.9706 41.0432 52.0052 41.2202 51.9216C41.3919 51.8404 41.5051 51.6719 41.5152 51.4822C41.5253 51.2928 41.4307 51.1129 41.2688 51.014L38.0357 49.0403C37.9236 48.972 37.7893 48.9492 37.6612 48.9755C37.6408 48.9798 35.588 49.4055 32.4901 49.8263C31.9039 49.9058 31.1698 49.9463 30.3085 49.9463C27.2138 49.9463 23.7718 49.4406 23.1116 49.1097C23.1021 49.0476 23.1143 48.9691 23.207 48.9009Z" fill="#9CA3AF"/>
<path d="M27.6129 59.9051C41.9913 59.8929 49.7085 57.3359 51.195 55.7269C51.7213 55.1574 51.7781 54.6185 51.7333 54.2665C51.6228 53.4002 50.834 52.87 50.7443 52.8123C50.5285 52.6735 50.2389 52.7099 50.0705 52.904C49.9026 53.0984 49.8987 53.382 50.0672 53.576C50.1579 53.6927 50.2104 53.8879 49.9452 54.1533C49.3509 54.7083 43.3566 56.3932 33.3762 56.8993C32.009 56.9705 30.5751 57.0065 29.1143 57.0067C20.1783 57.0067 13.6385 55.7828 12.78 55.0694C13.1111 54.5941 15.4242 53.8344 17.8843 53.405C18.1615 53.3566 18.3488 53.0953 18.3058 52.8173C18.2629 52.5393 18.0065 52.3478 17.7265 52.3844C17.657 52.3936 17.4218 52.4081 17.1489 52.4246C13.0899 52.6725 8.39918 53.225 8.15441 55.3162C8.08005 55.9537 8.26946 56.532 8.71748 57.0356C9.81368 58.2673 12.9647 59.9049 27.6123 59.9049C27.6127 59.9051 27.6129 59.9051 27.6129 59.9051Z" fill="#9CA3AF"/>
<path d="M54.0192 56.1801C53.8159 56.0861 53.5759 56.1336 53.4241 56.2972C53.4028 56.32 51.2412 58.5805 44.7415 59.9079C42.2531 60.4065 37.5822 60.6593 30.8586 60.6593C24.1224 60.6593 17.7127 60.3943 17.6487 60.3916C17.381 60.3786 17.1519 60.5732 17.1155 60.8367C17.079 61.1003 17.2488 61.3484 17.5074 61.4099C17.5741 61.4258 24.2915 62.9996 33.4763 62.9996C37.8815 62.9996 42.1682 62.6416 46.2175 61.9356C53.7678 60.612 54.2964 56.8682 54.3152 56.7095C54.3414 56.4877 54.222 56.2741 54.0192 56.1801Z" fill="#9CA3AF"/>
<g clip-path="url(#clip0_1_7692)">
<path d="M167.139 50.5833C165.292 49.8266 164.501 48.8226 164.578 47.3244C164.656 45.5757 163.664 44.2948 163.193 43.7888C163.478 42.7015 164.31 38.9401 163.194 35.673C161.995 32.176 158.335 26.835 154.558 21.585C153.012 19.4289 152.939 17.0853 152.855 14.3716C152.774 11.7832 152.682 8.8493 151.239 5.58777C149.669 2.03644 146.52 0 142.598 0C140.265 0 137.871 0.729145 136.028 2.0003C132.254 4.60477 132.753 10.2832 133.083 14.0407C133.128 14.5552 133.171 15.0413 133.195 15.4562C133.415 19.1362 133.215 21.0758 132.954 21.6653C132.785 22.0505 131.952 23.147 131.07 24.3078C130.159 25.5083 129.125 26.8691 128.278 28.1372C127.268 29.663 126.452 31.9952 125.663 34.2506C125.085 35.901 124.54 37.4599 124.009 38.3915C123.003 40.1835 123.253 41.8546 123.462 42.6269C123.082 42.8915 122.531 43.4124 122.067 44.3944C121.505 45.5924 120.366 46.2363 117.997 46.6917C116.909 46.9144 116.158 47.3721 115.766 48.0521C115.195 49.0417 115.506 50.2852 115.789 51.135C116.209 52.3842 115.947 53.1749 115.472 54.6105C115.363 54.9418 115.239 55.3169 115.113 55.7307C114.915 56.3836 114.986 56.9772 115.325 57.4951C116.219 58.8627 118.83 59.345 121.517 59.6623C123.122 59.8527 124.878 60.4945 126.576 61.1154C128.241 61.7235 129.961 62.3524 131.526 62.5433C131.763 62.5733 131.999 62.5883 132.226 62.5883C134.588 62.5883 135.655 61.0212 135.993 60.3773C136.841 60.2043 139.767 59.6499 142.783 59.5755C145.794 59.4896 148.707 60.084 149.532 60.2689C149.791 60.7655 150.475 61.8997 151.565 62.484C152.165 62.8116 152.999 62.9994 153.853 62.9994H153.853C154.765 62.9994 156.5 62.7837 157.874 61.3389C159.244 59.8872 162.666 58.034 165.166 56.6808C165.723 56.3788 166.245 56.0963 166.703 55.8412C168.107 55.0629 168.873 53.9508 168.804 52.7901C168.747 51.8261 168.109 50.9805 167.139 50.5833ZM136.058 50.3038C135.884 49.0727 134.3 47.8518 132.466 46.4381C130.966 45.282 129.267 43.9718 128.798 42.8622C127.831 40.5731 128.593 36.5481 129.923 34.4756C130.581 33.4378 131.118 31.8641 131.637 30.3421C132.197 28.6988 132.777 26.9996 133.426 26.2558C134.452 25.0946 135.401 22.8351 135.57 21.0543C136.531 21.9723 138.023 23.137 139.401 23.137C139.613 23.137 139.819 23.1094 140.015 23.0538C140.958 22.7816 142.345 21.9803 143.686 21.2057C144.842 20.5377 146.267 19.714 146.804 19.639C147.724 20.9597 153.068 32.7874 153.615 36.5857C154.047 39.5911 153.59 42.0756 153.361 43.0487C153.176 43.0235 152.956 43.003 152.724 43.003C151.236 43.003 150.842 43.8156 150.739 44.3008C150.475 45.5615 150.447 49.5924 150.444 50.4982C149.906 51.1821 147.184 54.4027 143.276 54.9817C141.684 55.213 140.197 55.3303 138.857 55.3303C137.712 55.3303 136.981 55.2419 136.678 55.1959L134.714 52.9487C135.488 52.5664 136.263 51.7596 136.058 50.3038ZM138.551 13.2504C138.489 13.2768 138.429 13.3051 138.37 13.3353C138.364 13.2023 138.35 13.0674 138.328 12.9321C138.114 11.6979 137.296 10.8021 136.383 10.8021C136.315 10.8021 136.247 10.8073 136.173 10.8186C135.63 10.9091 135.204 11.317 134.97 11.8954C135.175 10.6263 135.894 9.68668 136.747 9.68668C137.749 9.68668 138.595 11.0367 138.595 12.6347C138.595 12.8361 138.581 13.0364 138.551 13.2504ZM146.335 14.202C146.427 13.9099 146.476 13.5939 146.476 13.2659C146.476 11.8171 145.557 10.6821 144.383 10.6821C143.237 10.6821 142.304 11.8411 142.304 13.2659C142.304 13.363 142.308 13.4603 142.318 13.5573C142.257 13.534 142.198 13.5113 142.14 13.4894C142.008 13.0897 141.941 12.6727 141.941 12.247C141.941 10.5146 143.048 9.10502 144.409 9.10502C145.77 9.10502 146.878 10.5146 146.878 12.247C146.878 12.9676 146.679 13.6555 146.335 14.202ZM145.331 17.5738C145.312 17.6614 145.27 17.7003 144.808 17.9403C144.575 18.0615 144.285 18.2125 143.922 18.4335L143.68 18.5804C142.705 19.1711 140.424 20.5549 139.804 20.636C139.383 20.6926 139.123 20.5295 138.538 20.1318C138.406 20.042 138.265 19.9466 138.116 19.8505C137.061 19.1583 136.382 18.3959 136.306 18.0979C136.65 17.832 137.502 17.1667 137.939 16.7728C138.824 15.9491 139.716 15.3955 140.157 15.3955C140.18 15.3955 140.202 15.3971 140.223 15.4013C140.742 15.4928 142.021 16.0032 142.955 16.3758C143.386 16.5481 143.759 16.6968 144.022 16.791C144.848 17.0748 145.279 17.4379 145.331 17.5738ZM152.756 56.0698C153.222 53.9669 153.76 51.1061 153.673 49.4195C153.653 49.0364 153.619 48.6193 153.586 48.2161C153.524 47.4622 153.433 46.3416 153.527 46.0093C153.546 46.0006 153.567 45.9932 153.59 45.9868C153.593 46.951 153.803 48.8742 155.341 49.5449C155.799 49.7448 156.323 49.8461 156.898 49.8461C158.438 49.8461 160.148 49.0903 160.848 48.39C161.26 47.9778 161.607 47.4733 161.85 47.0739C161.903 47.2294 161.936 47.4326 161.919 47.6946C161.827 49.1167 162.518 51.0034 163.834 51.6987L164.025 51.7993C164.494 52.0451 165.738 52.6984 165.758 53.0082C165.758 53.0082 165.747 53.0448 165.678 53.1092C165.366 53.3941 164.269 53.9543 163.208 54.4961C161.327 55.457 159.193 56.5461 158.235 57.5537C156.887 58.9732 155.361 59.9266 154.44 59.9266C154.329 59.9266 154.228 59.9126 154.138 59.8841C153.137 59.5722 152.314 58.1286 152.756 56.0698ZM118.651 50.7049C118.549 50.2274 118.469 49.8504 118.555 49.4852C118.618 49.2146 119.954 48.9246 120.525 48.8009C121.327 48.6268 122.156 48.4468 122.699 48.1176C123.432 47.6733 123.829 46.8539 124.18 46.1309C124.433 45.6081 124.695 45.0676 125.007 44.8901C125.024 44.8798 125.051 44.8678 125.102 44.8678C125.686 44.8678 126.912 46.0954 127.618 47.1941C127.797 47.4711 128.129 48.0261 128.512 48.6687C129.66 50.5892 131.232 53.2198 132.053 54.1013C132.792 54.8939 133.99 56.4177 133.695 57.7245C133.48 58.7385 132.332 59.5631 132.061 59.7455C131.962 59.7678 131.841 59.7792 131.698 59.7792C130.127 59.7792 127.017 58.4721 125.346 57.7698L125.099 57.6659C124.166 57.2747 122.642 57.0282 121.169 56.7899C119.997 56.6001 118.392 56.3404 118.126 56.1058C117.911 55.8639 118.161 55.0775 118.382 54.3837C118.54 53.8851 118.704 53.3695 118.794 52.8298C118.922 51.9688 118.772 51.268 118.651 50.7049Z" fill="#9CA3AF"/>
</g>
<g clip-path="url(#clip1_1_7692)">
<path d="M249.729 5.32398V29.4341C249.729 29.7194 249.961 29.9505 250.246 29.9505H283.287C283.572 29.9505 283.803 29.7194 283.803 29.4341V0.516374C283.803 0.366413 283.738 0.223889 283.625 0.125775C283.512 0.0276604 283.361 -0.0161296 283.213 0.00535231L250.172 4.81296C249.918 4.84993 249.729 5.06764 249.729 5.32398Z" fill="#9CA3AF"/>
<path d="M246.115 57.8249C246.239 57.8249 246.36 57.7803 246.455 57.6977C246.567 57.5995 246.631 57.4576 246.631 57.3085V33.5652C246.631 33.28 246.4 33.0488 246.115 33.0488H221.347C221.21 33.0488 221.079 33.1032 220.982 33.2C220.885 33.2969 220.831 33.4283 220.831 33.5652L220.832 53.9142C220.832 54.1724 221.022 54.3907 221.278 54.4258L246.045 57.8203C246.068 57.8232 246.092 57.8249 246.115 57.8249Z" fill="#9CA3AF"/>
<path d="M221.35 29.9505H246.115C246.4 29.9505 246.631 29.7193 246.631 29.4341V5.92419C246.631 5.77506 246.567 5.63336 246.455 5.53525C246.343 5.43713 246.194 5.3921 246.046 5.41255L221.259 8.7786C221.002 8.81351 220.811 9.03225 220.812 9.29086L220.834 29.4345C220.834 29.7195 221.066 29.9505 221.35 29.9505Z" fill="#9CA3AF"/>
<path d="M283.287 62.9995C283.411 62.9995 283.531 62.9551 283.626 62.8729C283.738 62.7748 283.803 62.6327 283.803 62.4832L283.812 33.5652C283.812 33.4283 283.757 33.2969 283.66 33.2C283.563 33.1032 283.432 33.0488 283.295 33.0488H250.246C249.961 33.0488 249.729 33.28 249.729 33.5652V57.8348C249.729 58.0922 249.919 58.3103 250.174 58.3462L283.215 62.9946C283.239 62.9979 283.263 62.9995 283.287 62.9995Z" fill="#9CA3AF"/>
</g>
<g clip-path="url(#clip2_1_7692)">
<path d="M368.63 61.9007C370.7 61.9007 372.505 60.0959 372.505 58.0262V48.9773H375.092C376.644 48.9773 377.679 47.9423 377.679 46.3902V20.5454H346.658V46.3904C346.658 47.9427 347.693 48.9775 349.245 48.9775H351.833V58.0264C351.833 60.0961 353.637 61.901 355.707 61.901C357.777 61.901 359.581 60.0961 359.581 58.0264V48.9775H364.756V58.0264C364.756 60.0959 366.561 61.9007 368.63 61.9007Z" fill="#9CA3AF"/>
<path d="M384.141 46.3904C386.211 46.3904 388.015 44.5857 388.015 42.5158V24.4183C388.015 22.3596 386.211 20.5454 384.141 20.5454C382.071 20.5454 380.267 22.3596 380.267 24.4183V42.5158C380.267 44.5855 382.071 46.3904 384.141 46.3904Z" fill="#9CA3AF"/>
<path d="M340.196 46.3904C342.266 46.3904 344.071 44.5857 344.071 42.5158V24.4183C344.071 22.3596 342.267 20.5454 340.196 20.5454C338.127 20.5454 336.322 22.3596 336.322 24.4183V42.5158C336.322 44.5855 338.127 46.3904 340.196 46.3904Z" fill="#9CA3AF"/>
<path d="M374.574 0.390392C374.057 -0.130131 373.287 -0.130131 372.77 0.390392L369.3 3.84877L369.14 4.00865C367.082 2.97834 364.775 2.46381 362.207 2.45885C362.194 2.45885 362.182 2.45844 362.169 2.45844H362.169C362.156 2.45844 362.144 2.45885 362.131 2.45885C359.562 2.46381 357.255 2.97834 355.198 4.00865L355.037 3.84877L351.567 0.390392C351.05 -0.130131 350.28 -0.130131 349.763 0.390392C349.245 0.908023 349.245 1.67621 349.763 2.19343L353.12 5.55059C352.038 6.27271 351.057 7.15636 350.204 8.16705C348.163 10.5873 346.86 13.7371 346.681 17.1498C346.679 17.1853 346.676 17.2204 346.674 17.256C346.663 17.4883 346.658 17.7219 346.658 17.9564H377.679C377.679 17.7219 377.674 17.4883 377.663 17.256C377.661 17.2204 377.658 17.1853 377.656 17.1498C377.477 13.7371 376.174 10.5871 374.133 8.16725C373.28 7.15657 372.299 6.27292 371.217 5.5508L374.574 2.19363C375.092 1.67621 375.092 0.908023 374.574 0.390392ZM355.702 13.4392C354.632 13.4392 353.764 12.5715 353.764 11.5011C353.764 10.4307 354.632 9.56296 355.702 9.56296C356.773 9.56296 357.64 10.4307 357.64 11.5011C357.64 12.5715 356.773 13.4392 355.702 13.4392ZM368.635 13.4392C367.565 13.4392 366.697 12.5715 366.697 11.5011C366.697 10.4307 367.565 9.56296 368.635 9.56296C369.705 9.56296 370.573 10.4307 370.573 11.5011C370.573 12.5715 369.705 13.4392 368.635 13.4392Z" fill="#9CA3AF"/>
</g>
<g clip-path="url(#clip3_1_7692)">
<path d="M448.939 23.1587C443.613 32.4011 446.999 46.4269 452.889 54.9313C455.829 59.183 458.805 62.9996 462.882 62.9996C462.959 62.9996 463.036 62.9981 463.115 62.995C465.03 62.9186 466.414 62.3289 467.753 61.759C469.255 61.1187 470.809 60.4567 473.246 60.4567C475.565 60.4567 477.045 61.0972 478.476 61.7165C479.886 62.3266 481.339 62.9579 483.486 62.9176C488.078 62.8321 490.897 58.7137 493.385 55.0806C495.981 51.2872 497.283 47.6041 497.722 46.1966L497.74 46.1406C497.823 45.8905 497.705 45.6174 497.466 45.5073C497.459 45.5042 497.435 45.4941 497.428 45.4912C496.619 45.1605 489.525 42.0136 489.451 33.4366C489.382 26.4682 494.772 22.7781 495.854 22.1092L495.904 22.0778C496.021 22.0024 496.103 21.8828 496.13 21.7461C496.158 21.6096 496.129 21.4675 496.051 21.3526C492.33 15.9074 486.627 15.0867 484.331 14.988C483.997 14.9547 483.653 14.938 483.308 14.938C480.611 14.938 478.028 15.9565 475.952 16.7749C474.52 17.3398 473.282 17.8277 472.429 17.8277C471.47 17.8277 470.225 17.3338 468.784 16.7621C466.857 15.9972 464.673 15.1305 462.36 15.1305C462.305 15.1305 462.251 15.1311 462.197 15.1322C456.821 15.2113 451.74 18.2873 448.939 23.1587Z" fill="#9CA3AF"/>
<path d="M484.335 0.000396885C481.079 0.133006 477.174 2.13723 474.839 4.87162C472.855 7.16998 470.917 11.002 471.428 14.8646C471.46 15.1063 471.656 15.2928 471.899 15.3116C472.119 15.3288 472.343 15.3374 472.567 15.3376C475.751 15.3376 479.185 13.5763 481.53 10.7403C483.999 7.74565 485.247 3.90246 484.87 0.459985C484.84 0.190222 484.603 -0.0101375 484.335 0.000396885Z" fill="#9CA3AF"/>
</g>
<g clip-path="url(#clip4_1_7692)">
<path d="M570.658 31.5018C570.658 37.993 575.939 43.2736 582.43 43.2736C588.921 43.2736 594.202 37.9928 594.202 31.5018C594.202 25.0105 588.921 19.7295 582.43 19.7295C575.939 19.7295 570.658 25.0105 570.658 31.5018Z" fill="#9CA3AF"/>
<path d="M609.538 15.9629C609.629 15.8015 609.628 15.6035 609.533 15.4438C606.791 10.8256 602.889 6.95721 598.248 4.25689C593.465 1.47354 587.995 0.00244141 582.431 0.00244141C572.8 0.00244141 563.825 4.32443 557.806 11.8602C557.673 12.0263 557.656 12.2566 557.762 12.4407L566.63 27.7992C566.723 27.9603 566.894 28.0574 567.077 28.0574C567.1 28.0574 567.123 28.0557 567.147 28.0526C567.354 28.0243 567.524 27.8731 567.577 27.6701C569.325 20.8952 575.433 16.1636 582.431 16.1636C582.865 16.1636 583.313 16.1835 583.764 16.2219C583.779 16.2233 583.793 16.224 583.808 16.224H609.089C609.274 16.224 609.446 16.1244 609.538 15.9629Z" fill="#9CA3AF"/>
<path d="M587.085 46.4618C586.957 46.2959 586.742 46.2247 586.539 46.2808C585.205 46.6522 583.823 46.8404 582.431 46.8404C576.515 46.8404 571.062 43.3707 568.539 38.001C568.533 37.9878 568.526 37.975 568.519 37.9622L555.87 16.0531C555.778 15.893 555.607 15.7949 555.422 15.7949C555.422 15.7949 555.421 15.7949 555.42 15.7949C555.234 15.796 555.063 15.8961 554.973 16.0577C552.328 20.7496 550.931 26.0901 550.931 31.5019C550.931 39.0939 553.67 46.4273 558.643 52.1512C563.567 57.8181 570.346 61.5474 577.731 62.6525C577.757 62.6564 577.782 62.6581 577.808 62.6581C577.99 62.6581 578.161 62.561 578.255 62.3999L587.124 47.0366C587.229 46.8549 587.214 46.6276 587.085 46.4618Z" fill="#9CA3AF"/>
<path d="M611.281 19.6694H593.523C593.313 19.6694 593.124 19.7965 593.045 19.9906C592.965 20.1848 593.011 20.4079 593.161 20.5545C596.133 23.4674 597.769 27.3552 597.769 31.502C597.769 34.6413 596.822 37.6624 595.029 40.239C595.021 40.251 595.013 40.2631 595.006 40.2757L582.335 62.2228C582.242 62.3835 582.243 62.5816 582.336 62.7419C582.429 62.9003 582.599 62.9974 582.782 62.9974C582.784 62.9974 582.786 62.9974 582.788 62.9974C591.126 62.9044 598.951 59.5869 604.821 53.6565C610.695 47.7211 613.93 39.8531 613.93 31.502C613.93 27.5326 613.201 23.662 611.762 19.9972C611.684 19.7994 611.494 19.6694 611.281 19.6694Z" fill="#9CA3AF"/>
</g>
<g clip-path="url(#clip5_1_7692)">
<path d="M692.785 0C684.229 0 676.579 3.16073 670.662 9.14137C664.648 15.2488 661.337 23.1893 661.337 31.4999C661.337 39.9642 664.537 47.6307 670.591 53.6694C676.588 59.6862 684.469 62.9998 692.785 62.9998C701.187 62.9998 709.198 59.6587 715.342 53.5926C721.226 47.8003 724.337 40.1608 724.337 31.4999C724.337 22.8667 721.194 15.1664 715.249 9.23184C709.199 3.19233 701.431 0 692.785 0ZM692.873 56.2817C686.315 56.2817 680.105 53.6853 675.386 48.9709C670.607 44.194 667.975 37.9893 667.975 31.5001C667.975 24.9929 670.608 18.7285 675.389 13.861C680.048 9.12898 686.094 6.62778 692.873 6.62778C699.62 6.62778 705.725 9.16141 710.528 13.9546C715.211 18.6246 717.686 24.6926 717.686 31.5024C717.686 38.3243 715.246 44.3308 710.629 48.8723C705.768 53.6502 699.463 56.2817 692.873 56.2817Z" fill="#9CA3AF"/>
<path d="M692.823 35.8126L688.958 33.8681C688.831 33.8038 688.682 33.7956 688.548 33.8447C688.414 33.8941 688.306 33.997 688.251 34.1285C687.554 35.7785 686.558 36.4825 684.918 36.4825C681.634 36.4825 681.28 32.9976 681.28 31.4995C681.28 28.1946 682.504 26.519 684.918 26.519C685.241 26.519 686.907 26.6254 687.889 28.7258C687.949 28.8535 688.058 28.9512 688.191 28.9962C688.325 29.0415 688.471 29.0299 688.596 28.9648L692.717 26.8115C692.84 26.7472 692.932 26.6361 692.972 26.5033C693.013 26.3705 692.997 26.2271 692.931 26.1053C691.235 23.0164 688.24 21.3838 684.27 21.3838C678.622 21.3838 674.678 25.5434 674.678 31.4995C674.678 37.6541 678.508 41.6309 684.435 41.6309C688.004 41.6309 691.221 39.7238 693.04 36.5294C693.11 36.4062 693.127 36.26 693.086 36.1245C693.045 35.989 692.95 35.8762 692.823 35.8126Z" fill="#9CA3AF"/>
<path d="M710.982 36.1253C710.941 35.9895 710.847 35.8766 710.72 35.8125L706.868 33.8661C706.74 33.8015 706.591 33.793 706.456 33.8426C706.321 33.8924 706.214 33.9959 706.158 34.1283C705.47 35.7787 704.472 36.4826 702.819 36.4826C699.524 36.4826 699.168 32.9978 699.168 31.4996C699.168 28.2015 700.397 26.529 702.819 26.529C703.144 26.529 704.812 26.635 705.793 28.7264C705.853 28.8538 705.962 28.9513 706.096 28.9964C706.229 29.0414 706.375 29.03 706.5 28.965L710.62 26.8143C710.744 26.7501 710.835 26.6391 710.876 26.5065C710.916 26.3737 710.901 26.2306 710.835 26.1089C709.122 22.9734 706.203 21.3833 702.161 21.3833C696.513 21.3833 692.569 25.5434 692.569 31.4996C692.569 37.6542 696.404 41.631 702.339 41.631C705.891 41.631 709.105 39.7241 710.935 36.5301C711.006 36.4074 711.023 36.2608 710.982 36.1253Z" fill="#9CA3AF"/>
</g>
<defs>
<clipPath id="clip0_1_7692">
<rect width="62.9994" height="62.9994" fill="white" transform="translate(110.406)"/>
</clipPath>
<clipPath id="clip1_1_7692">
<rect width="62.9998" height="62.9998" fill="white" transform="translate(220.812)"/>
</clipPath>
<clipPath id="clip2_1_7692">
<rect width="61.9007" height="61.9007" fill="white" transform="translate(331.218)"/>
</clipPath>
<clipPath id="clip3_1_7692">
<rect width="62.9998" height="62.9998" fill="white" transform="translate(440.524)"/>
</clipPath>
<clipPath id="clip4_1_7692">
<rect width="62.9998" height="62.9998" fill="white" transform="translate(550.931)"/>
</clipPath>
<clipPath id="clip5_1_7692">
<rect width="62.9998" height="62.9998" fill="white" transform="translate(661.337)"/>
</clipPath>
</defs>
</svg>
