<svg width="156" height="33" viewBox="0 0 156 33" fill="none" xmlns="http://www.w3.org/2000/svg">
<path fill-rule="evenodd" clip-rule="evenodd" d="M43.8859 23.7276C44.0777 24.3572 44.1731 25.1506 44.1731 26.1086C44.1731 26.5193 44.3377 26.7242 44.6661 26.7242C44.9945 26.7242 45.1591 26.5193 45.1591 26.1086C45.1591 25.1506 45.2546 24.3572 45.4464 23.7276L50.2495 7.88205H55.8329L48.4438 29.557H40.8902L33.5011 7.88205H39.0845L43.8876 23.7276H43.8859ZM16.209 32.4871L17.4043 30.5168C22.8064 31.0361 27.2128 29.4695 30.1297 24.6777C33.0712 19.8466 33.2647 13.7141 30.6385 8.70782C27.8206 3.33724 22.2801 0 16.244 0C10.0914 0 4.47476 3.46684 1.71372 8.97403C0.617359 11.1615 0 13.6309 0 16.244C0 25.1769 7.22704 32.4687 16.209 32.488V32.4871ZM17.2037 27.2505L5.32155 13.2299C4.60961 12.3901 4.24358 12.4794 4.99667 11.3734L9.73763 4.40032C10.2236 3.68576 10.0161 3.78472 10.8489 3.78472H22.0323C22.5367 3.78472 22.8519 3.75232 23.0822 4.09909L27.9896 11.3165C28.7164 12.3857 28.6341 12.01 27.9615 13.1178L19.498 27.0648C18.4279 28.8276 18.519 28.8031 17.2029 27.2505H17.2037ZM141.466 22.2494C141.493 23.2346 141.87 24.0691 142.595 24.7539C143.32 25.4378 144.545 25.7802 146.269 25.7802C147.857 25.7802 149 25.5473 149.698 25.0823C150.396 24.6173 150.744 23.9877 150.744 23.1943C150.744 22.6741 150.518 22.2775 150.067 22.0034C149.615 21.7302 148.993 21.5174 148.199 21.3667C147.406 21.2161 146.161 21.0454 144.464 20.8536C141.508 20.4981 139.517 19.6977 138.491 18.4525C137.464 17.2072 136.951 15.7772 136.951 14.1625C136.951 12.9584 137.307 11.8568 138.019 10.8576C138.731 9.85848 139.784 9.0581 141.18 8.4565C142.576 7.85491 144.259 7.55367 146.229 7.55367C148.994 7.55367 151.169 8.20343 152.756 9.50382C154.344 10.8033 155.206 12.4803 155.342 14.5329H150.17C150.087 13.7115 149.739 13.0276 149.123 12.4803C148.508 11.933 147.501 11.6589 146.106 11.6589C143.506 11.6589 142.206 12.398 142.206 13.8752C142.206 14.2859 142.309 14.6275 142.514 14.9016C142.719 15.1748 143.164 15.4217 143.849 15.6406C144.533 15.8596 145.546 16.0373 146.887 16.1739C149.761 16.4752 151.998 17.1389 153.599 18.1652C155.2 19.1915 156 20.731 156 22.7836C156 25.0551 155.144 26.8065 153.434 28.0386C151.724 29.2698 149.281 29.8863 146.106 29.8863C143.042 29.8863 140.667 29.2085 138.984 27.8538C137.301 26.4991 136.404 24.6313 136.294 22.2503H141.467L141.466 22.2494ZM123.486 7.55279C125.675 7.55279 127.591 8.04581 129.233 9.03095C130.875 10.0161 132.134 11.3577 133.01 13.0539C133.885 14.7509 134.323 16.6389 134.323 18.7187C134.323 20.7984 133.885 22.6873 133.01 24.3835C132.134 26.0806 130.875 27.4212 129.233 28.4064C127.591 29.3915 125.675 29.8845 123.486 29.8845C121.297 29.8845 119.381 29.3915 117.739 28.4064C116.097 27.4212 114.837 26.0797 113.962 24.3835C113.086 22.6864 112.648 20.7984 112.648 18.7187C112.648 16.6389 113.086 14.7501 113.962 13.0539C114.837 11.3568 116.097 10.0161 117.739 9.03095C119.381 8.04581 121.297 7.55279 123.486 7.55279ZM123.486 25.1234C125.21 25.1234 126.572 24.5148 127.57 23.2968C128.569 22.0787 129.068 20.5532 129.068 18.7195C129.068 16.8859 128.569 15.3604 127.57 14.1423C126.571 12.9243 125.209 12.3157 123.486 12.3157C121.762 12.3157 120.4 12.9243 119.402 14.1423C118.402 15.3604 117.903 16.8859 117.903 18.7195C117.903 20.5532 118.402 22.0787 119.402 23.2968C120.401 24.5148 121.762 25.1234 123.486 25.1234ZM102.221 7.55279C104.629 7.55279 106.531 8.33303 107.927 9.89263C109.322 11.4522 110.02 13.7378 110.02 16.7484V29.557H104.765V18.5549C104.765 16.2011 104.451 14.5732 103.821 13.6695C103.192 12.7666 102.165 12.3148 100.742 12.3148C99.7302 12.3148 98.7792 12.6703 97.8895 13.3822C96.9998 14.0942 96.2817 15.0925 95.7344 16.3788C95.1871 17.6652 94.913 19.1154 94.913 20.7301V29.5562H89.658V7.88118H94.913V9.23586C94.913 9.86548 94.8578 10.3988 94.7484 10.8366C94.6389 11.2745 94.4743 11.7263 94.2554 12.1913C94.1188 12.5197 94.0505 12.7386 94.0505 12.8481C94.0505 13.0941 94.1599 13.2316 94.3788 13.2588H94.5023C94.6941 13.2588 94.8578 13.0941 94.9953 12.7658C95.5978 11.4251 96.5278 10.2201 97.787 9.15355C99.0462 8.08609 100.524 7.55279 102.221 7.55279ZM76.1935 7.55279C78.3827 7.55279 80.2987 8.04581 81.9406 9.03095C83.5825 10.0161 84.8417 11.3577 85.7174 13.0539C86.5931 14.7509 87.031 16.6389 87.031 18.7187C87.031 20.7984 86.5931 22.6873 85.7174 24.3835C84.8417 26.0806 83.5825 27.4212 81.9406 28.4064C80.2987 29.3915 78.3827 29.8845 76.1935 29.8845C74.0042 29.8845 72.0882 29.3915 70.4463 28.4064C68.8044 27.4212 67.5452 26.0797 66.6695 24.3835C65.7938 22.6864 65.356 20.7984 65.356 18.7187C65.356 16.6389 65.7938 14.7501 66.6695 13.0539C67.5452 11.3568 68.8044 10.0161 70.4463 9.03095C72.0882 8.04581 74.0042 7.55279 76.1935 7.55279ZM76.1935 25.1234C77.9177 25.1234 79.2794 24.5148 80.2777 23.2968C81.2768 22.0787 81.776 20.5532 81.776 18.7195C81.776 16.8859 81.2768 15.3604 80.2777 14.1423C79.2785 12.9243 77.9168 12.3157 76.1935 12.3157C74.4692 12.3157 73.1075 12.9243 72.1093 14.1423C71.1101 15.3604 70.611 16.8859 70.611 18.7195C70.611 20.5532 71.1101 22.0787 72.1093 23.2968C73.1084 24.5148 74.4701 25.1234 76.1935 25.1234ZM57.4739 0H62.7289V5.25499H57.4739V0ZM57.4739 7.88205H62.7289V29.557H57.4739V7.88205Z" fill="white"/>
</svg>
