<svg width="59" height="59" viewBox="0 0 59 59" fill="none" xmlns="http://www.w3.org/2000/svg">
<g clip-path="url(#clip0_1_6130)">
<path fill-rule="evenodd" clip-rule="evenodd" d="M36.2381 0H56.1791C56.9565 0 57.6628 0.382537 58.1727 0.998654C58.6836 1.61477 59 2.46737 59 3.40516V22.1211C59 23.06 58.6831 23.9115 58.1727 24.5276C58.1165 24.5954 58.0575 24.6586 57.9955 24.7165C57.5043 25.2208 56.8691 25.5262 56.1791 25.5262H36.2381C35.4608 25.5262 34.7545 25.1437 34.2446 24.5276C34.1855 24.4557 34.1313 24.381 34.0813 24.3021C33.667 23.7075 33.4173 22.9459 33.4173 22.1205V3.40516C33.4173 2.46679 33.7342 1.61419 34.2446 0.998654C34.7545 0.382537 35.4608 0 36.2381 0ZM55.2198 4.56379H37.1975V20.963H55.2198V4.56379ZM2.82086 33.4738H22.7623C23.5402 33.4738 24.2455 33.8557 24.7559 34.4724C25.2663 35.0885 25.5832 35.9405 25.5832 36.8789V55.5948C25.5832 56.5332 25.2658 57.3858 24.7554 58.0013C24.245 58.6169 23.5397 59 22.7619 59H2.82086C2.04399 59 1.33769 58.618 0.827294 58.0013C0.316897 57.3858 0 56.5332 0 55.5948V36.8789C0 35.9405 0.316897 35.0885 0.827294 34.4724C1.33769 33.8563 2.04399 33.4738 2.82086 33.4738ZM21.803 38.037H3.78068V54.4368H21.8035L21.803 38.037Z" fill="white"/>
<path d="M18.5566 10.0603C8.57724 10.0603 7.17665 16.8254 7.80372 27.8402H12.3944C12.3944 21.4344 11.0466 14.8559 20.0167 15.5381V19.4858C19.9985 21.0594 20.4196 21.3811 21.3535 20.2404L26.7014 14.0543C27.326 13.3316 27.4158 12.8441 26.7633 12.0953L21.3472 5.88195C20.3476 4.73492 20.0201 5.02298 20.0201 6.70035L20.0172 10.0603H18.5566Z" fill="#FF9900"/>
<path d="M37.6298 50.1594C47.6092 50.1594 49.0093 43.3942 48.3827 32.3789H43.7906C43.7906 38.7847 45.1383 45.3632 36.1682 44.681V40.7333C36.1869 39.1597 35.7659 38.838 34.832 39.9792L29.4851 46.1647C28.8604 46.8875 28.7706 47.3755 29.4231 48.1244L34.8387 54.3377C35.8393 55.4853 36.1658 55.1967 36.1658 53.5193L36.1687 50.1594H37.6298Z" fill="#FF9900"/>
</g>
<defs>
<clipPath id="clip0_1_6130">
<rect width="59" height="59" fill="white"/>
</clipPath>
</defs>
</svg>
