<svg width="59" height="59" viewBox="0 0 59 59" fill="none" xmlns="http://www.w3.org/2000/svg">
<g clip-path="url(#clip0_1_6117)">
<path d="M27.9089 14.2941V10.5106C26.8914 10.2697 25.963 9.79378 25.2175 9.13089C24.472 8.468 23.9357 7.64155 23.6626 6.73488C23.3896 5.82821 23.3895 4.87337 23.6623 3.96664C23.9351 3.05992 24.4712 2.23337 25.2166 1.57033C25.7714 1.07398 26.4306 0.680154 27.1564 0.411436C27.8822 0.142719 28.6604 0.00439453 29.4463 0.00439453C30.2322 0.00439453 31.0103 0.142719 31.7362 0.411436C32.462 0.680154 33.1212 1.07398 33.6759 1.57033C34.4345 2.24476 34.9765 3.08815 35.2455 4.01274C35.5145 4.93733 35.5007 5.90931 35.2055 6.82751C34.9102 7.74572 34.3444 8.57658 33.5669 9.23362C32.7893 9.89065 31.8285 10.3499 30.7844 10.5634V14.1501L30.6928 14.1117C30.5302 14.0723 30.3647 14.0434 30.1974 14.0252C29.9751 14.0139 29.7521 14.0139 29.5297 14.0252H29.4543C29.2742 14.0247 29.0942 14.0359 28.9159 14.0589C28.792 14.0589 28.6413 14.1069 28.4743 14.1453C28.2908 14.1823 28.1107 14.2321 27.9359 14.2941H27.8928H27.9089ZM30.8651 48.4947C31.9267 48.7293 32.8966 49.2173 33.6706 49.9064C34.2272 50.401 34.6689 50.9888 34.9702 51.636C35.2716 52.2832 35.4267 52.9771 35.4267 53.6779C35.4267 54.3786 35.2716 55.0725 34.9702 55.7197C34.6689 56.3669 34.2272 56.9547 33.6706 57.4494C33.1158 57.9458 32.4566 58.3396 31.7308 58.6083C31.0049 58.877 30.2268 59.0153 29.4409 59.0153C28.655 59.0153 27.8768 58.877 27.151 58.6083C26.4252 58.3396 25.766 57.9458 25.2112 57.4494C24.6546 56.9547 24.2129 56.3669 23.9115 55.7197C23.6102 55.0725 23.4551 54.3786 23.4551 53.6779C23.4551 52.9771 23.6102 52.2832 23.9115 51.636C24.2129 50.9888 24.6546 50.401 25.2112 49.9064C25.9792 49.2178 26.9438 48.7297 28.0005 48.4947V44.7496C28.1167 44.792 28.2353 44.8289 28.3559 44.86L28.5605 44.9081C28.6979 44.9438 28.8384 44.9695 28.9805 44.9849C29.2049 45.0175 29.4317 45.0352 29.659 45.0377C29.8863 45.0354 30.1131 45.0177 30.3374 44.9849C30.5198 44.9625 30.6998 44.9272 30.8759 44.8793V48.4947H30.8651ZM31.6405 51.7117C31.054 51.195 30.2627 50.9053 29.4382 50.9053C28.6137 50.9053 27.8224 51.195 27.2359 51.7117C26.6561 52.2355 26.3311 52.9419 26.3311 53.6779C26.3311 54.4138 26.6561 55.1202 27.2359 55.6441C27.8224 56.1607 28.6137 56.4504 29.4382 56.4504C30.2627 56.4504 31.054 56.1607 31.6405 55.6441C32.2229 55.1214 32.5497 54.4146 32.5497 53.6779C32.5497 52.9411 32.2229 52.2343 31.6405 51.7117ZM31.6405 3.36126C31.054 2.84462 30.2627 2.5549 29.4382 2.5549C28.6137 2.5549 27.8224 2.84462 27.2359 3.36126C26.6561 3.88512 26.3311 4.59148 26.3311 5.32745C26.3311 6.06342 26.6561 6.76979 27.2359 7.29364C27.8232 7.81287 28.6165 8.10447 29.4436 8.10508C30.0596 8.10429 30.6615 7.94082 31.1734 7.6353C31.6853 7.32977 32.0842 6.89588 32.3198 6.38839C32.5554 5.88089 32.6171 5.32254 32.4972 4.78379C32.3773 4.24504 32.081 3.75004 31.6459 3.36126H31.6405ZM53.007 36.2223C54.5947 36.223 56.1171 36.7861 57.2393 37.7875C57.796 38.2822 58.2376 38.87 58.539 39.5172C58.8404 40.1644 58.9955 40.8583 58.9955 41.5591C58.9955 42.2598 58.8404 42.9537 58.539 43.6009C58.2376 44.2481 57.796 44.8359 57.2393 45.3306C56.2961 46.1715 55.065 46.7075 53.7413 46.8536C52.4176 46.9997 51.0771 46.7475 49.9324 46.1371C48.7877 45.5266 47.9044 44.5929 47.4225 43.4839C46.9406 42.3749 46.8877 41.1542 47.2723 40.0154L43.7668 38.2101C44.0707 37.9556 44.3335 37.6647 44.5476 37.3458C44.6493 37.1905 44.741 37.0302 44.8222 36.8657C44.9071 36.7111 44.9773 36.5505 45.0322 36.3855C45.083 36.2421 45.1244 36.0963 45.1561 35.9486L48.7369 37.7923L48.7692 37.7587C49.8931 36.7565 51.4175 36.1935 53.007 36.1935V36.2223ZM55.2093 39.5833C54.7726 39.196 54.2171 38.9326 53.6127 38.8266C53.0084 38.7205 52.3824 38.7764 51.8137 38.9873C51.2449 39.1981 50.759 39.5544 50.4171 40.0113C50.0753 40.4681 49.8928 41.005 49.8928 41.5543C49.8928 42.1035 50.0753 42.6404 50.4171 43.0972C50.759 43.5541 51.2449 43.9104 51.8137 44.1213C52.3824 44.3321 53.0084 44.388 53.6127 44.2819C54.2171 44.1759 54.7726 43.9126 55.2093 43.5252C55.7916 43.0026 56.1185 42.2958 56.1185 41.5591C56.1185 40.8223 55.7916 40.1155 55.2093 39.5929V39.5833ZM5.99327 36.2223C7.54967 36.2218 9.0449 36.7627 10.161 37.7299L13.8441 35.8093L13.8765 35.9246L13.9626 36.2175C14.0282 36.411 14.1129 36.599 14.2157 36.7792C14.2745 36.9097 14.3466 37.035 14.4311 37.1537C14.6469 37.4689 14.9075 37.7578 15.2065 38.0132L15.2388 38.042L11.6849 39.8714C12.1179 41.0144 12.1041 42.2544 11.6455 43.3895C11.187 44.5246 10.3109 45.4877 9.15996 46.122C8.009 46.7563 6.65106 47.0243 5.30745 46.8823C3.96383 46.7403 2.71374 46.1967 1.76091 45.3402C0.922772 44.5928 0.351996 43.6406 0.120757 42.604C-0.110481 41.5674 0.00820336 40.4929 0.461802 39.5164C0.915401 38.5399 1.68354 37.7053 2.66909 37.1181C3.65464 36.5309 4.81334 36.2175 5.99866 36.2175L5.99327 36.2223ZM8.19561 39.5833C7.60949 39.064 6.81681 38.7726 5.99058 38.7726C5.16435 38.7726 4.37167 39.064 3.78555 39.5833C3.20451 40.1065 2.87857 40.8131 2.87857 41.5495C2.87857 42.2858 3.20451 42.9924 3.78555 43.5156H3.7694C4.35688 44.0326 5.14905 44.3224 5.97442 44.3224C6.7998 44.3224 7.59197 44.0326 8.17945 43.5156C8.76213 42.9922 9.08911 42.2846 9.08911 41.5471C9.08911 40.8095 8.76213 40.1019 8.17945 39.5785L8.19561 39.5833ZM53.007 12.0663C54.1934 12.064 55.3539 12.376 56.3411 12.9629C57.3284 13.5497 58.0978 14.3848 58.5519 15.3622C59.0059 16.3397 59.1241 17.4153 58.8913 18.4527C58.6586 19.4901 58.0855 20.4425 57.2447 21.189C56.6887 21.6851 56.0284 22.0786 55.3018 22.3471C54.5751 22.6156 53.7962 22.7537 53.0097 22.7537C52.2231 22.7537 51.4442 22.6156 50.7175 22.3471C49.9909 22.0786 49.3307 21.6851 48.7746 21.189L48.6938 21.1266L45.1345 22.9511C45.0356 22.5454 44.8686 22.1553 44.6392 21.794C44.3959 21.3971 44.0832 21.0372 43.713 20.728L47.2561 18.9035C46.9501 17.9834 46.9291 17.0065 47.1955 16.0766C47.4619 15.1467 48.0057 14.2984 48.7692 13.6219C49.3242 13.1252 49.9838 12.7312 50.7102 12.4626C51.4365 12.1939 52.2152 12.056 53.0016 12.0567L53.007 12.0663ZM55.2093 15.4273C54.6234 14.9095 53.8319 14.6189 53.007 14.6189C52.182 14.6189 51.3905 14.9095 50.8046 15.4273C50.2191 15.9487 49.8899 16.6562 49.8894 17.3942C49.8889 18.1321 50.2171 18.8399 50.8019 19.362C51.3867 19.8841 52.1802 20.1777 53.0078 20.1782C53.8353 20.1786 54.6292 19.8859 55.2147 19.3644C55.5043 19.1063 55.7341 18.7998 55.8909 18.4624C56.0476 18.125 56.1283 17.7634 56.1283 17.3983C56.1283 17.0331 56.0476 16.6715 55.8909 16.3341C55.7341 15.9967 55.5043 15.6902 55.2147 15.4321L55.2093 15.4273ZM5.99327 12.0663C6.78087 12.0628 7.56132 12.1995 8.28897 12.4683C9.01661 12.737 9.67684 13.1325 10.231 13.6315C10.7894 14.1245 11.2321 14.7117 11.5335 15.3588C11.8349 16.0059 11.9888 16.7 11.9864 17.4007C11.986 17.8243 11.9299 18.2465 11.8195 18.6586L15.3626 20.5792C15.2017 20.7027 15.0522 20.8376 14.9157 20.9825C14.6244 21.2795 14.3831 21.6127 14.1995 21.9716L14.0541 22.2597C13.9895 22.4278 13.9303 22.591 13.8818 22.7398L10.4949 20.9057C10.4126 20.9951 10.3245 21.08 10.231 21.1602C9.68838 21.6993 9.02839 22.1343 8.29122 22.4387C7.55405 22.7431 6.75512 22.9106 5.94306 22.9309C5.131 22.9512 4.32278 22.824 3.56762 22.557C2.81245 22.2899 2.12611 21.8887 1.55039 21.3776C0.974674 20.8665 0.521606 20.2563 0.218767 19.5841C-0.0840721 18.912 -0.230348 18.1919 -0.211159 17.4677C-0.191969 16.7435 -0.00771514 16.0304 0.330389 15.3717C0.668493 14.713 1.15338 14.1226 1.75552 13.6363C2.3105 13.1396 2.97013 12.7456 3.69647 12.477C4.42282 12.2083 5.20155 12.0704 5.98789 12.0711L5.99327 12.0663ZM8.19561 15.4273C7.60812 14.9103 6.81595 14.6205 5.99058 14.6205C5.1652 14.6205 4.37304 14.9103 3.78555 15.4273H3.7694C3.18965 15.9511 2.8646 16.6575 2.8646 17.3934C2.8646 18.1294 3.18965 18.8358 3.7694 19.3596C4.20544 19.7496 4.76153 20.0152 5.36715 20.123C5.97276 20.2307 6.60061 20.1757 7.17108 19.9648C7.74155 19.7539 8.22894 19.3967 8.57143 18.9385C8.91393 18.4803 9.0961 17.9417 9.09485 17.3911C9.09626 17.0268 9.01709 16.6658 8.86186 16.3288C8.70664 15.9919 8.4784 15.6855 8.19022 15.4273H8.19561Z" fill="white"/>
<path fill-rule="evenodd" clip-rule="evenodd" d="M18.2165 22.7015L29.1312 17.2518L29.2658 17.2038C29.3788 17.1711 29.497 17.1549 29.6158 17.1558C29.7176 17.1549 29.819 17.1662 29.9174 17.1894C30.0034 17.2052 30.0844 17.238 30.1543 17.2855L40.956 22.8599C41.215 22.9484 41.428 23.1195 41.5537 23.3401C41.6664 23.5324 41.722 23.7473 41.7152 23.9642V35.2044C41.7021 35.3889 41.6364 35.5673 41.5242 35.7227C41.4121 35.8782 41.2573 36.0055 41.0745 36.0927L30.2243 41.7151C30.1461 41.753 30.0629 41.782 29.9766 41.8016C29.7606 41.8591 29.5304 41.8591 29.3143 41.8016C29.2079 41.7744 29.1064 41.734 29.0128 41.6815L17.9149 35.9198C17.7371 35.8332 17.5863 35.7083 17.4763 35.5566C17.3662 35.4048 17.3005 35.2309 17.2849 35.0508V23.7482C17.286 23.508 17.3765 23.2749 17.5422 23.0855C17.7079 22.896 17.9393 22.761 18.2003 22.7015H18.2165ZM39.3082 25.64L30.8597 30.1437V38.9448L39.3082 34.5034V25.64ZM21.3719 23.8202L29.6159 19.4317L37.6875 23.9451L29.6536 28.2664L21.3719 23.8202ZM28.4476 38.9351V30.1389L19.7082 25.5055V34.3594L28.4368 38.9351H28.4476Z" fill="#FF9900"/>
</g>
<defs>
<clipPath id="clip0_1_6117">
<rect width="59" height="59" fill="white"/>
</clipPath>
</defs>
</svg>
