<svg width="41" height="40" viewBox="0 0 41 40" fill="none" xmlns="http://www.w3.org/2000/svg">
<path d="M16.9844 40H24.0156V32.8906H33.3906V2.34375H26.1586C25.6749 0.979609 24.3716 0 22.8438 0H18.1562C16.6284 0 15.3251 0.979609 14.8414 2.34375H7.60938V32.8906H16.9844V40ZM21.6719 37.6562H19.3281V30.5469H21.6719V37.6562ZM20.5 23.5156C17.2691 23.5156 14.6406 20.8871 14.6406 17.6562C14.6406 14.3823 17.2691 11.7188 20.5 11.7188C23.7309 11.7188 26.3594 14.3823 26.3594 17.6562C26.3594 20.8871 23.7309 23.5156 20.5 23.5156ZM18.1562 2.34375H22.8438C23.4899 2.34375 24.0156 2.86945 24.0156 3.51562V4.6875H16.9844V3.51562C16.9844 2.86945 17.5101 2.34375 18.1562 2.34375ZM9.95312 30.5469V4.6875H14.6406V7.03125H26.3594V4.6875H31.0469V30.5469H24.0156V28.2031H21.6719V25.7753C25.642 25.2049 28.7031 21.7816 28.7031 17.6562C28.7031 13.0899 25.0232 9.375 20.5 9.375C15.9768 9.375 12.2969 13.0899 12.2969 17.6562C12.2969 21.7816 15.358 25.2049 19.3281 25.7753V28.2031H16.9844V30.5469H9.95312Z" fill="#263238"/>
<path d="M23.187 14.4839L19.3281 18.3428L17.8129 16.8276L16.1558 18.485L19.3281 21.6573L24.8442 16.1412L23.187 14.4839Z" fill="#FF9900"/>
</svg>
