<svg width="40" height="40" viewBox="0 0 40 40" fill="none" xmlns="http://www.w3.org/2000/svg">
<path d="M20 5.16992C15.386 5.16992 11.202 7.04112 8.16279 10.0627C8.14959 10.0743 8.13279 10.0783 8.12039 10.0907C8.10799 10.1031 8.10399 10.1199 8.09239 10.1331C5.07119 13.1719 3.19999 17.3559 3.19999 21.9699C3.19999 26.0283 4.66599 29.9455 7.32959 33.0019C7.65359 33.3751 8.21519 33.4151 8.58919 33.0979L12.1 30.1235C12.4852 29.7991 12.5272 29.2187 12.1936 28.8415C10.52 26.9431 9.59919 24.5019 9.59919 21.9695C9.59919 16.2343 14.2644 11.5691 19.9996 11.5691C22.3868 11.5691 24.72 12.3987 26.5668 13.9035C27.4856 14.6535 28.6268 13.2611 27.7036 12.5091C25.7696 10.9319 23.3816 9.99312 20.8996 9.80832V7.01512C28.7516 7.48472 35 14.0027 35 21.9699C35 25.2911 33.8996 28.5091 31.884 31.1235L29.7408 29.3163C31.3332 27.2071 32.2004 24.6323 32.2004 21.9699C32.2004 20.7863 32.0304 19.6143 31.6952 18.4859C31.352 17.3367 29.634 17.8683 29.97 18.9991C30.2548 19.9599 30.4 20.9595 30.4 21.9699C30.4 24.5011 29.48 26.9411 27.8088 28.8383C27.4772 29.2131 27.5144 29.7935 27.9036 30.1215L31.4204 33.0875C31.7956 33.4051 32.358 33.3607 32.6788 32.9903C35.3364 29.9363 36.8 26.0223 36.8 21.9699C36.8 12.7063 29.2636 5.16992 20 5.16992ZM12.044 12.7403L10.0652 10.7619C12.5032 8.59832 15.6428 7.22192 19.1 7.01512V9.81472C16.4132 10.0127 13.9688 11.0787 12.044 12.7403ZM10.264 29.3211L8.12399 31.1339C6.28679 28.7543 5.21759 25.8731 5.03719 22.8699H7.83639C8.00919 25.2103 8.84959 27.4491 10.264 29.3211ZM7.84519 21.0699H5.04559C5.25239 17.6123 6.62879 14.4727 8.79239 12.0347L10.7712 14.0127C9.10919 15.9379 8.04279 18.3827 7.84519 21.0699Z" fill="#263238"/>
<path d="M22.0368 26.5508C22.884 25.7024 29.8944 16.51 30.6912 15.4648C31.3072 14.656 30.3076 13.6104 29.476 14.1712C27.6688 15.3748 18.6092 21.4252 17.7596 22.2748C16.5808 23.4536 16.5808 25.372 17.7596 26.5508C18.936 27.7272 20.8552 27.732 22.0368 26.5508ZM19.032 23.5472C19.4256 23.1592 22.6272 20.954 25.932 18.718C23.4992 21.8796 21.1568 24.8844 20.764 25.278C19.6188 26.4236 17.8864 24.6928 19.032 23.5472Z" fill="#FF9900"/>
<path d="M16.9027 31.4201H23.0971C24.2883 31.4201 24.2883 29.6201 23.0971 29.6201H16.9027C15.7115 29.6201 15.7115 31.4201 16.9027 31.4201Z" fill="#FF9900"/>
<path d="M27.5752 33.03H12.4252C11.234 33.03 11.234 34.83 12.4252 34.83H27.5752C28.766 34.83 28.766 33.03 27.5752 33.03Z" fill="#FF9900"/>
</svg>
