<svg width="82" height="82" viewBox="0 0 82 82" fill="none" xmlns="http://www.w3.org/2000/svg">
<rect x="1" y="1" width="80" height="80" rx="40" fill="white"/>
<rect x="1" y="1" width="80" height="80" rx="40" stroke="#BC72F1" stroke-width="2"/>
<g clip-path="url(#clip0_1_6203)">
<path d="M51.3855 38.1188C52.6449 38.1188 53.6695 37.0942 53.6695 35.8348V20.284C53.6695 19.0246 52.645 18 51.3855 18H43.6101C42.3507 18 41.3262 19.0246 41.3262 20.284V25.0001C41.1238 24.9867 40.9169 25.0566 40.7621 25.2113C40.4774 25.496 40.4774 25.9576 40.7621 26.2421L41.8504 27.3304H39.6738V20.284C39.6738 19.0246 38.6493 18 37.3898 18H29.6144C28.355 18 27.3304 19.0246 27.3304 20.284V35.8348C27.3304 37.0942 28.355 38.1188 29.6144 38.1188H32.7732V42.8812H29.6144C28.355 42.8812 27.3304 43.9058 27.3304 45.1652V60.716C27.3304 61.9754 28.355 63 29.6144 63H37.3898C38.6492 63 39.6738 61.9754 39.6738 60.716V45.1652C39.6738 43.9058 38.6492 42.8812 37.3898 42.8812H34.231V38.1188H37.3898C38.6492 38.1188 39.6738 37.0942 39.6738 35.8348V28.7883H41.8503L40.762 29.8766C40.4773 30.1612 40.4773 30.6229 40.762 30.9074C40.9044 31.0496 41.091 31.1209 41.2775 31.1209C41.2937 31.1209 41.3098 31.1197 41.3261 31.1186V35.8347C41.3261 37.0941 42.3507 38.1187 43.6101 38.1187H46.7689V42.8811H43.6101C42.3507 42.8811 41.3261 43.9058 41.3261 45.1651V60.7159C41.3261 61.9753 42.3507 62.9999 43.6101 62.9999H51.3855C52.6449 62.9999 53.6695 61.9753 53.6695 60.7159V45.1652C53.6695 43.9058 52.6449 42.8812 51.3855 42.8812H48.2267V38.1188H51.3855ZM37.3898 44.3391C37.8454 44.3391 38.216 44.7096 38.216 45.1652V60.716C38.216 61.1715 37.8454 61.5422 37.3898 61.5422H29.6144C29.1589 61.5422 28.7882 61.1715 28.7882 60.716V45.1652C28.7882 44.7097 29.1588 44.3391 29.6144 44.3391H32.7732V47.293L31.685 46.2047C31.4002 45.92 30.9387 45.92 30.6541 46.2047C30.3694 46.4894 30.3694 46.951 30.6541 47.2355L32.9867 49.5681L32.9896 49.5708C33.0057 49.5867 33.0225 49.602 33.0401 49.6165C33.0483 49.6231 33.0569 49.629 33.0652 49.6354C33.076 49.6433 33.0863 49.6516 33.0975 49.6591C33.1074 49.6657 33.1177 49.6715 33.1279 49.6775C33.1381 49.6837 33.1481 49.6901 33.1586 49.6957C33.169 49.7013 33.1798 49.706 33.1905 49.7111C33.2014 49.7163 33.212 49.7217 33.2233 49.7262C33.2336 49.7305 33.2444 49.734 33.255 49.7378C33.2669 49.7421 33.2786 49.7466 33.2906 49.7503C33.3013 49.7535 33.312 49.7559 33.3229 49.7586C33.3351 49.7617 33.3473 49.7651 33.3597 49.7676C33.3722 49.7702 33.3848 49.7716 33.3975 49.7733C33.4084 49.7749 33.4192 49.7769 33.4302 49.7781C33.4541 49.7805 33.4781 49.7817 33.5021 49.7817C33.5261 49.7817 33.5501 49.7805 33.574 49.7781C33.585 49.777 33.5958 49.775 33.6067 49.7733C33.6193 49.7715 33.632 49.77 33.6444 49.7676C33.657 49.7651 33.6691 49.7617 33.6813 49.7586C33.6921 49.7559 33.7028 49.7536 33.7135 49.7503C33.7257 49.7466 33.7373 49.7421 33.7492 49.7378C33.7598 49.7341 33.7704 49.7305 33.7808 49.7262C33.7919 49.7216 33.8027 49.7161 33.8136 49.7109C33.8243 49.7059 33.835 49.7012 33.8455 49.6956C33.8559 49.69 33.8659 49.6836 33.8761 49.6775C33.8863 49.6713 33.8966 49.6656 33.9065 49.659C33.9176 49.6516 33.9282 49.6433 33.9388 49.6353C33.9471 49.6289 33.9558 49.6231 33.9639 49.6165C33.9815 49.602 33.9983 49.5868 34.0145 49.5708L34.0174 49.5681L36.35 47.2355C36.6347 46.9508 36.6347 46.4892 36.35 46.2047C36.0652 45.92 35.6037 45.92 35.319 46.2047L34.2309 47.293V44.3391H37.3898ZM33.5022 28.8855C33.0466 28.8855 32.676 28.5149 32.676 28.0593C32.676 27.6038 33.0466 27.2332 33.5022 27.2332C33.9577 27.2332 34.3283 27.6037 34.3283 28.0593C34.3283 28.515 33.9577 28.8855 33.5022 28.8855ZM38.216 35.8348C38.216 36.2903 37.8454 36.6609 37.3898 36.6609H34.231V30.2235C34.9049 29.9958 35.4386 29.4622 35.6662 28.7883H38.2159L38.216 35.8348ZM38.216 27.3305H35.6663C35.3613 26.4276 34.5067 25.7754 33.5022 25.7754C32.2429 25.7754 31.2182 26.8 31.2182 28.0594C31.2182 29.064 31.8704 29.9185 32.7733 30.2235V36.6609H29.6145C29.1589 36.6609 28.7883 36.2903 28.7883 35.8348V20.284C28.7883 19.8285 29.1589 19.4578 29.6145 19.4578H37.3899C37.8454 19.4578 38.2161 19.8285 38.2161 20.284L38.216 27.3305ZM43.6102 36.6609C43.1547 36.6609 42.784 36.2903 42.784 35.8348V29.9165L44.1257 28.5748C44.4103 28.2901 44.4103 27.8285 44.1257 27.544L42.784 26.2024V20.284C42.784 19.8285 43.1546 19.4578 43.6102 19.4578H51.3856C51.8411 19.4578 52.2118 19.8285 52.2118 20.284V35.8348C52.2118 36.2903 51.8412 36.6609 51.3856 36.6609H48.2268V30.2235C49.1297 29.9185 49.7819 29.0639 49.7819 28.0594C49.7819 26.8 48.7572 25.7754 47.4979 25.7754C46.2385 25.7754 45.2138 26.8 45.2138 28.0594C45.2138 29.064 45.866 29.9185 46.7689 30.2235V36.6609H43.6102ZM51.3855 44.3391C51.8411 44.3391 52.2117 44.7096 52.2117 45.1652V60.716C52.2117 61.1715 51.8411 61.5422 51.3855 61.5422H43.6101C43.1546 61.5422 42.7839 61.1715 42.7839 60.716V45.1652C42.7839 44.7097 43.1545 44.3391 43.6101 44.3391H46.7689V47.293L45.6807 46.2047C45.396 45.92 44.9344 45.92 44.6498 46.2047C44.3652 46.4894 44.3652 46.951 44.6498 47.2355L46.9825 49.5681L46.9854 49.5708C47.0015 49.5867 47.0183 49.602 47.0359 49.6165C47.0441 49.6231 47.0527 49.629 47.061 49.6354C47.0718 49.6433 47.0821 49.6516 47.0933 49.6591C47.1032 49.6657 47.1135 49.6715 47.1237 49.6775C47.1339 49.6837 47.1439 49.6901 47.1544 49.6957C47.1647 49.7013 47.1756 49.706 47.1863 49.7111C47.1972 49.7163 47.2078 49.7217 47.2191 49.7262C47.2294 49.7305 47.2402 49.734 47.2508 49.7378C47.2627 49.7421 47.2743 49.7466 47.2864 49.7503C47.2971 49.7535 47.3078 49.7559 47.3186 49.7586C47.3309 49.7617 47.3431 49.7651 47.3555 49.7676C47.368 49.7702 47.3806 49.7716 47.3933 49.7733C47.4042 49.7749 47.415 49.7769 47.426 49.7781C47.4499 49.7805 47.4739 49.7817 47.4979 49.7817C47.5218 49.7817 47.5458 49.7805 47.5697 49.7781C47.5808 49.777 47.5915 49.775 47.6024 49.7733C47.6151 49.7715 47.6278 49.77 47.6402 49.7676C47.6528 49.7651 47.6648 49.7617 47.6771 49.7586C47.6879 49.7559 47.6986 49.7536 47.7093 49.7503C47.7214 49.7466 47.7331 49.7421 47.745 49.7378C47.7556 49.7341 47.7662 49.7305 47.7766 49.7262C47.7877 49.7216 47.7985 49.7161 47.8094 49.7109C47.8201 49.7059 47.8308 49.7012 47.8412 49.6956C47.8517 49.69 47.8617 49.6836 47.8719 49.6775C47.8821 49.6713 47.8924 49.6656 47.9023 49.659C47.9134 49.6516 47.9239 49.6433 47.9346 49.6353C47.9429 49.6289 47.9515 49.6231 47.9597 49.6165C47.9773 49.602 47.9941 49.5868 48.0103 49.5708L48.0132 49.5681L50.3458 47.2355C50.6305 46.9508 50.6305 46.4892 50.3458 46.2047C50.061 45.92 49.5995 45.92 49.3148 46.2047L48.2266 47.293V44.3391H51.3855ZM47.4979 28.8855C47.0423 28.8855 46.6717 28.5149 46.6717 28.0593C46.6717 27.6038 47.0423 27.2332 47.4979 27.2332C47.9534 27.2332 48.324 27.6037 48.324 28.0593C48.324 28.515 47.9534 28.8855 47.4979 28.8855Z" fill="#6A0DAD"/>
<path d="M47.4979 50.6565C46.2385 50.6565 45.2138 51.6811 45.2138 52.9405C45.2138 54.1999 46.2385 55.2245 47.4979 55.2245C48.7572 55.2245 49.7819 54.1999 49.7819 52.9405C49.7819 51.6811 48.7572 50.6565 47.4979 50.6565ZM47.4979 53.7667C47.0423 53.7667 46.6717 53.3961 46.6717 52.9405C46.6717 52.4849 47.0423 52.1143 47.4979 52.1143C47.9534 52.1143 48.324 52.485 48.324 52.9405C48.324 53.396 47.9534 53.7667 47.4979 53.7667Z" fill="#FF9900"/>
<path d="M33.5021 50.6565C32.2427 50.6565 31.2181 51.6811 31.2181 52.9405C31.2181 54.1999 32.2427 55.2245 33.5021 55.2245C34.7615 55.2245 35.7861 54.1999 35.7861 52.9405C35.7861 51.6811 34.7616 50.6565 33.5021 50.6565ZM33.5021 53.7667C33.0466 53.7667 32.676 53.3961 32.676 52.9405C32.676 52.4849 33.0466 52.1143 33.5021 52.1143C33.9577 52.1143 34.3283 52.485 34.3283 52.9405C34.3283 53.396 33.9577 53.7667 33.5021 53.7667Z" fill="#FF9900"/>
</g>
<defs>
<clipPath id="clip0_1_6203">
<rect width="45" height="45" fill="white" transform="translate(18 18)"/>
</clipPath>
</defs>
</svg>
