<svg width="533" height="47" viewBox="0 0 533 47" fill="none" xmlns="http://www.w3.org/2000/svg">
<g clip-path="url(#clip0_1_6334)">
<path d="M22.9213 8.65862C20.7819 10.1633 18.3571 11.8689 17.0579 14.6906C14.8013 19.6131 21.6756 24.9828 21.9693 25.209C22.0376 25.2617 22.1193 25.2878 22.2008 25.2878C22.2874 25.2878 22.3741 25.2582 22.4445 25.1993C22.581 25.0851 22.6197 24.8913 22.5377 24.7334C22.5128 24.6854 20.0453 19.8925 20.137 16.454C20.1695 15.2565 21.8455 13.898 23.6198 12.4596C25.2449 11.1422 27.0869 9.64902 28.1648 7.90232C30.5308 4.05748 27.9011 0.276863 27.8742 0.239214C27.7698 0.0925681 27.577 0.0392836 27.4121 0.111696C27.2474 0.18426 27.1561 0.362482 27.1938 0.538427C27.1991 0.563324 27.7106 3.06345 26.2875 5.63917C25.7011 6.70349 24.413 7.60963 22.9213 8.65862Z" fill="#9CA3AF"/>
<path d="M31.935 10.3541C32.0859 10.2404 32.1303 10.033 32.0389 9.86757C31.9475 9.7021 31.7485 9.62908 31.5718 9.69618C31.2083 9.83433 22.6717 13.1248 22.6717 17.1008C22.6717 19.8413 23.8425 21.2893 24.6973 22.3466C25.0327 22.7612 25.3221 23.1193 25.4175 23.4251C25.686 24.3062 25.0498 25.8986 24.7823 26.4378C24.7052 26.593 24.743 26.7808 24.8742 26.894C24.9451 26.9552 25.0336 26.9862 25.1222 26.9862C25.1977 26.9862 25.2734 26.9637 25.3388 26.9182C25.4856 26.816 28.9261 24.3836 28.309 21.4529C28.0791 20.3391 27.5317 19.5251 27.0487 18.8069C26.3004 17.6943 25.76 16.8905 26.5799 15.406C27.5408 13.6748 31.8912 10.3871 31.935 10.3541Z" fill="#9CA3AF"/>
<path d="M9.71405 27.0498C9.56771 27.4878 9.63678 27.9227 9.91368 28.3072C10.8391 29.5918 14.1169 30.2994 19.1439 30.2994C19.1442 30.2994 19.1445 30.2994 19.1445 30.2994C19.8257 30.2994 20.5448 30.286 21.2813 30.2596C29.3185 29.9718 32.2996 27.468 32.4225 27.3616C32.5566 27.2456 32.5924 27.0524 32.509 26.896C32.4257 26.7398 32.246 26.6613 32.0743 26.7085C29.2438 27.4814 23.9582 27.7557 20.292 27.7557C16.1897 27.7557 14.1005 27.4603 13.5891 27.2422C13.8516 26.8818 15.4703 26.2382 17.4761 25.8437C17.6679 25.8061 17.7996 25.629 17.7807 25.4346C17.7617 25.2401 17.5983 25.0918 17.403 25.0918C16.2271 25.0919 10.3304 25.1864 9.71405 27.0498Z" fill="#9CA3AF"/>
<path d="M36.6082 24.4712C34.9505 24.4712 33.3785 25.3019 33.3123 25.3373C33.159 25.4194 33.0813 25.5952 33.1233 25.764C33.1655 25.9326 33.3172 26.0512 33.4912 26.0514C33.5264 26.0515 37.0272 26.0801 37.3443 28.0803C37.6252 29.8059 34.0319 32.6019 32.6236 33.5337C32.4715 33.6343 32.4124 33.8289 32.483 33.997C32.543 34.1401 32.6825 34.2297 32.8328 34.2297C32.859 34.2297 32.8856 34.227 32.912 34.2212C33.2463 34.1498 41.0876 32.422 40.2586 27.8564C39.7528 25.0584 37.9942 24.4712 36.6082 24.4712Z" fill="#9CA3AF"/>
<path d="M31.2308 32.9751C31.2581 32.8288 31.1972 32.68 31.0755 32.5947L29.1953 31.2777C29.1036 31.2135 28.9878 31.1933 28.8802 31.2219C28.8606 31.227 26.8944 31.7438 24.0398 32.0608C22.9068 32.1878 21.6379 32.2549 20.3698 32.2549C17.516 32.2549 15.65 31.9196 15.3782 31.6736C15.3423 31.6046 15.3536 31.5731 15.36 31.5557C15.4094 31.4183 15.674 31.2551 15.8446 31.1906C16.033 31.1209 16.1345 30.9163 16.0759 30.7241C16.0175 30.5319 15.8194 30.4187 15.6239 30.4657C13.7378 30.9208 12.8156 31.5574 12.8827 32.3574C13.0018 33.7757 16.2874 34.5038 19.065 34.6964C19.4644 34.7238 19.8965 34.7377 20.3487 34.7377C20.349 34.7377 20.3492 34.7377 20.3495 34.7377C24.9682 34.7377 30.8893 33.2886 30.9485 33.2739C31.0931 33.2382 31.2033 33.1214 31.2308 32.9751Z" fill="#9CA3AF"/>
<path d="M17.0557 36.0191C17.1981 35.9263 17.2612 35.7504 17.2107 35.5882C17.1603 35.4261 17.0086 35.3197 16.8383 35.3218C16.5855 35.3285 14.365 35.4287 14.2096 36.8425C14.1625 37.2649 14.2835 37.6508 14.5694 37.9895C15.3667 38.9344 17.5187 39.4959 21.1475 39.7065C21.5768 39.7321 22.0128 39.745 22.4438 39.745C27.0572 39.745 30.1643 38.3006 30.2944 38.2391C30.4205 38.1794 30.5037 38.0556 30.5112 37.9162C30.5186 37.777 30.4491 37.6448 30.33 37.5721L27.954 36.1215C27.8715 36.0713 27.7728 36.0546 27.6787 36.0739C27.6637 36.0771 26.155 36.3899 23.8782 36.6992C23.4474 36.7576 22.9079 36.7874 22.2748 36.7874C20.0004 36.7874 17.4707 36.4157 16.9855 36.1725C16.9786 36.1268 16.9875 36.0692 17.0557 36.0191Z" fill="#9CA3AF"/>
<path d="M20.2936 44.1068C30.861 44.0978 36.5327 42.2186 37.6252 41.036C38.012 40.6175 38.0538 40.2214 38.0208 39.9627C37.9396 39.326 37.3599 38.9364 37.294 38.894C37.1353 38.792 36.9225 38.8187 36.7988 38.9614C36.6754 39.1043 36.6725 39.3127 36.7963 39.4552C36.863 39.541 36.9016 39.6845 36.7066 39.8795C36.2699 40.2874 31.8644 41.5257 24.5294 41.8977C23.5246 41.95 22.4707 41.9765 21.3971 41.9766C14.8296 41.9766 10.0232 41.0772 9.39232 40.5528C9.63567 40.2035 11.3356 39.6452 13.1436 39.3295C13.3474 39.294 13.4851 39.102 13.4535 38.8976C13.4219 38.6933 13.2335 38.5526 13.0277 38.5795C12.9767 38.5863 12.8037 38.5969 12.6032 38.6091C9.62003 38.7912 6.17263 39.1973 5.99274 40.7342C5.93809 41.2027 6.07729 41.6278 6.40656 41.9979C7.21221 42.9031 9.52803 44.1066 20.2932 44.1066C20.2935 44.1068 20.2936 44.1068 20.2936 44.1068Z" fill="#9CA3AF"/>
<path d="M39.7009 41.3686C39.5515 41.2995 39.3751 41.3345 39.2635 41.4547C39.2479 41.4714 37.6592 43.1328 32.8823 44.1083C31.0534 44.4748 27.6206 44.6606 22.6791 44.6606C17.7284 44.6606 13.0176 44.4658 12.9706 44.4638C12.7738 44.4543 12.6055 44.5973 12.5788 44.791C12.5519 44.9847 12.6767 45.167 12.8667 45.2122C12.9158 45.2239 17.8527 46.3806 24.603 46.3806C27.8406 46.3806 30.9911 46.1175 33.9671 45.5986C39.5161 44.6258 39.9046 41.8743 39.9184 41.7577C39.9377 41.5947 39.8499 41.4377 39.7009 41.3686Z" fill="#9CA3AF"/>
</g>
<g clip-path="url(#clip1_1_6334)">
<path d="M122.838 37.2555C121.48 36.6994 120.899 35.9615 120.956 34.8604C121.013 33.5752 120.284 32.6339 119.938 32.2619C120.147 31.4628 120.759 28.6984 119.939 26.2972C119.058 23.7271 116.367 19.8018 113.592 15.9433C112.456 14.3588 112.402 12.6364 112.34 10.6419C112.28 8.73961 112.213 6.58334 111.152 4.18629C109.999 1.57626 107.684 0.0795898 104.802 0.0795898C103.087 0.0795898 101.327 0.615471 99.9728 1.5497C97.1993 3.46384 97.5659 7.63719 97.8085 10.3987C97.8418 10.7769 97.873 11.1341 97.8913 11.4391C98.0528 14.1437 97.9058 15.5691 97.7136 16.0024C97.5893 16.2855 96.9772 17.0913 96.3295 17.9445C95.6595 18.8268 94.9 19.8269 94.2775 20.7588C93.5347 21.8802 92.935 23.5943 92.3551 25.2519C91.9308 26.4648 91.5301 27.6105 91.1399 28.2952C90.4005 29.6123 90.5844 30.8404 90.7381 31.408C90.4581 31.6025 90.0537 31.9853 89.7123 32.707C89.2997 33.5875 88.4625 34.0607 86.7215 34.3954C85.9215 34.5591 85.3699 34.8955 85.0814 35.3952C84.6617 36.1225 84.8903 37.0364 85.0989 37.661C85.407 38.5791 85.215 39.1602 84.8659 40.2153C84.7854 40.4588 84.6942 40.7345 84.6017 41.0385C84.4561 41.5184 84.5086 41.9547 84.7575 42.3353C85.4149 43.3404 87.3335 43.6949 89.3085 43.928C90.4877 44.068 91.7784 44.5397 93.0267 44.996C94.2498 45.4429 95.5146 45.9052 96.6642 46.0455C96.8389 46.0675 97.012 46.0785 97.1788 46.0785C98.9146 46.0785 99.6988 44.9268 99.9475 44.4536C100.571 44.3264 102.721 43.9189 104.938 43.8643C107.15 43.8011 109.291 44.238 109.898 44.3739C110.088 44.7388 110.591 45.5724 111.392 46.0019C111.833 46.2427 112.446 46.3806 113.073 46.3806H113.073C113.744 46.3806 115.019 46.2222 116.028 45.1603C117.035 44.0934 119.551 42.7313 121.388 41.7368C121.797 41.5149 122.181 41.3072 122.517 41.1197C123.549 40.5477 124.112 39.7304 124.062 38.8774C124.02 38.1689 123.551 37.5474 122.838 37.2555ZM99.9955 37.0501C99.867 36.1453 98.7031 35.248 97.3552 34.209C96.2531 33.3593 95.0039 32.3964 94.6597 31.5809C93.9485 29.8986 94.5091 26.9405 95.4866 25.4172C95.9697 24.6545 96.3642 23.4979 96.7459 22.3794C97.1579 21.1716 97.584 19.9228 98.0605 19.3762C98.8152 18.5227 99.5126 16.8621 99.6361 15.5534C100.343 16.228 101.439 17.084 102.452 17.084C102.608 17.084 102.759 17.0637 102.904 17.0229C103.596 16.8228 104.616 16.2339 105.601 15.6646C106.451 15.1737 107.499 14.5683 107.893 14.5132C108.569 15.4838 112.497 24.1765 112.898 26.9681C113.216 29.1769 112.88 31.0028 112.712 31.718C112.576 31.6995 112.414 31.6844 112.244 31.6844C111.15 31.6844 110.86 32.2817 110.785 32.6383C110.591 33.5647 110.57 36.5273 110.568 37.1929C110.173 37.6956 108.172 40.0626 105.3 40.4881C104.13 40.6581 103.037 40.7443 102.052 40.7443C101.211 40.7443 100.674 40.6794 100.451 40.6455L99.0073 38.994C99.5765 38.713 100.145 38.12 99.9955 37.0501ZM101.827 9.8179C101.782 9.83734 101.738 9.85813 101.694 9.8803C101.69 9.78253 101.679 9.6834 101.664 9.58397C101.506 8.67692 100.905 8.01853 100.234 8.01853C100.184 8.01853 100.134 8.02232 100.08 8.03067C99.6805 8.09716 99.3674 8.39698 99.1959 8.82205C99.3463 7.88934 99.8748 7.19877 100.502 7.19877C101.238 7.19877 101.86 8.19098 101.86 9.36537C101.86 9.51338 101.849 9.66063 101.827 9.8179ZM107.548 10.5173C107.615 10.3026 107.652 10.0704 107.652 9.82929C107.652 8.76451 106.976 7.93033 106.114 7.93033C105.271 7.93033 104.585 8.78212 104.585 9.82929C104.585 9.90064 104.589 9.97214 104.596 10.0435C104.551 10.0263 104.507 10.0096 104.465 9.99355C104.368 9.6998 104.319 9.3933 104.319 9.08042C104.319 7.80721 105.132 6.77128 106.133 6.77128C107.133 6.77128 107.947 7.80721 107.947 9.08042C107.947 9.61008 107.801 10.1156 107.548 10.5173ZM106.81 12.9954C106.796 13.0598 106.765 13.0883 106.426 13.2647C106.255 13.3538 106.042 13.4648 105.775 13.6272L105.597 13.7352C104.881 14.1693 103.204 15.1863 102.748 15.2459C102.439 15.2875 102.248 15.1676 101.818 14.8754C101.721 14.8093 101.618 14.7392 101.507 14.6686C100.732 14.1599 100.233 13.5996 100.177 13.3805C100.43 13.1852 101.056 12.6962 101.377 12.4067C102.028 11.8013 102.684 11.3944 103.008 11.3944C103.025 11.3944 103.04 11.3956 103.057 11.3987C103.438 11.4659 104.377 11.841 105.064 12.1149C105.381 12.2415 105.655 12.3508 105.848 12.42C106.455 12.6286 106.772 12.8955 106.81 12.9954ZM112.267 41.2878C112.61 39.7422 113.005 37.6397 112.941 36.4002C112.926 36.1186 112.901 35.8121 112.877 35.5158C112.832 34.9617 112.765 34.1381 112.834 33.8939C112.848 33.8875 112.863 33.882 112.88 33.8773C112.883 34.5859 113.037 35.9994 114.167 36.4923C114.504 36.6393 114.889 36.7137 115.311 36.7137C116.444 36.7137 117.7 36.1582 118.215 35.6436C118.518 35.3406 118.772 34.9699 118.951 34.6763C118.99 34.7906 119.014 34.94 119.001 35.1325C118.934 36.1777 119.442 37.5643 120.409 38.0752L120.549 38.1492C120.894 38.3298 121.808 38.81 121.823 39.0377C121.823 39.0377 121.815 39.0646 121.764 39.1119C121.535 39.3213 120.729 39.733 119.949 40.1312C118.566 40.8374 116.998 41.6379 116.294 42.3784C115.303 43.4216 114.182 44.1224 113.505 44.1224C113.423 44.1224 113.349 44.112 113.283 44.0911C112.548 43.8619 111.942 42.8009 112.267 41.2878ZM87.2023 37.3449C87.1273 36.9939 87.0681 36.7169 87.1317 36.4485C87.1779 36.2496 88.1596 36.0365 88.5789 35.9455C89.1684 35.8176 89.778 35.6853 90.1767 35.4434C90.7158 35.1168 91.0077 34.5146 91.2652 33.9833C91.4516 33.599 91.6441 33.2018 91.8731 33.0714C91.886 33.0638 91.9058 33.055 91.9434 33.055C92.3726 33.055 93.2731 33.9572 93.792 34.7646C93.9236 34.9682 94.1674 35.3761 94.4495 35.8484C95.2931 37.2599 96.4482 39.1932 97.0515 39.8411C97.5951 40.4236 98.4751 41.5434 98.2586 42.5039C98.1001 43.2492 97.2564 43.8552 97.0574 43.9892C96.9851 44.0056 96.8957 44.014 96.7905 44.014C95.6359 44.014 93.3502 43.0533 92.1223 42.5372L91.9405 42.4608C91.2548 42.1733 90.1354 41.9922 89.0529 41.817C88.1915 41.6775 87.012 41.4867 86.8164 41.3142C86.6579 41.1364 86.8418 40.5585 87.0039 40.0486C87.1207 39.6821 87.2412 39.3032 87.3072 38.9065C87.4009 38.2738 87.2907 37.7587 87.2023 37.3449Z" fill="#9CA3AF"/>
</g>
<g clip-path="url(#clip2_1_6334)">
<path d="M183.538 3.99242V21.712C183.538 21.9217 183.708 22.0915 183.917 22.0915H208.2C208.41 22.0915 208.58 21.9217 208.58 21.712V0.459096C208.58 0.348883 208.532 0.244136 208.449 0.172027C208.366 0.0999187 208.255 0.0677355 208.146 0.0835235L183.863 3.61685C183.676 3.64402 183.538 3.80403 183.538 3.99242Z" fill="#9CA3AF"/>
<path d="M180.881 42.5782C180.973 42.5782 181.061 42.5454 181.131 42.4847C181.213 42.4126 181.261 42.3083 181.261 42.1987V24.7487C181.261 24.539 181.091 24.3691 180.881 24.3691H162.678C162.578 24.3691 162.481 24.4091 162.41 24.4803C162.339 24.5515 162.299 24.648 162.299 24.7487L162.3 39.704C162.3 39.8938 162.44 40.0542 162.628 40.08L180.83 42.5748C180.847 42.577 180.864 42.5782 180.881 42.5782Z" fill="#9CA3AF"/>
<path d="M162.68 22.0918H180.881C181.091 22.0918 181.261 21.9219 181.261 21.7122V4.43378C181.261 4.32418 181.213 4.22004 181.131 4.14793C181.048 4.07582 180.939 4.04273 180.83 4.05775L162.613 6.53161C162.425 6.55727 162.284 6.71803 162.284 6.9081L162.301 21.7125C162.301 21.922 162.471 22.0918 162.68 22.0918Z" fill="#9CA3AF"/>
<path d="M208.2 46.3813C208.291 46.3813 208.38 46.3486 208.449 46.2882C208.532 46.2161 208.58 46.1117 208.58 46.0017L208.586 24.7487C208.586 24.648 208.546 24.5515 208.475 24.4803C208.404 24.4091 208.307 24.3691 208.207 24.3691H183.917C183.708 24.3691 183.538 24.539 183.538 24.7487V42.5855C183.538 42.7746 183.677 42.9349 183.864 42.9613L208.148 46.3776C208.165 46.38 208.183 46.3813 208.2 46.3813Z" fill="#9CA3AF"/>
</g>
<g clip-path="url(#clip3_1_6334)">
<path d="M270.922 45.5731C272.444 45.5731 273.77 44.2466 273.77 42.7255V36.0751H275.671C276.812 36.0751 277.573 35.3144 277.573 34.1737V15.1792H254.774V34.1738C254.774 35.3147 255.535 36.0752 256.676 36.0752H258.577V42.7256C258.577 44.2467 259.903 45.5732 261.425 45.5732C262.946 45.5732 264.272 44.2467 264.272 42.7256V36.0752H268.075V42.7256C268.075 44.2466 269.401 45.5731 270.922 45.5731Z" fill="#9CA3AF"/>
<path d="M282.322 34.1738C283.843 34.1738 285.169 32.8475 285.169 31.3262V18.0256C285.169 16.5125 283.843 15.1792 282.322 15.1792C280.801 15.1792 279.474 16.5125 279.474 18.0256V31.3262C279.474 32.8473 280.801 34.1738 282.322 34.1738Z" fill="#9CA3AF"/>
<path d="M250.025 34.1738C251.546 34.1738 252.873 32.8475 252.873 31.3262V18.0256C252.873 16.5125 251.547 15.1792 250.025 15.1792C248.504 15.1792 247.178 16.5125 247.178 18.0256V31.3262C247.178 32.8473 248.504 34.1738 250.025 34.1738Z" fill="#9CA3AF"/>
<path d="M275.291 0.366506C274.911 -0.016049 274.345 -0.016049 273.965 0.366506L271.415 2.90822L271.297 3.02572C269.785 2.26851 268.089 1.89035 266.201 1.88671C266.192 1.88671 266.183 1.88641 266.174 1.88641H266.173C266.164 1.88641 266.155 1.88671 266.146 1.88671C264.258 1.89035 262.562 2.26851 261.05 3.02572L260.932 2.90822L258.382 0.366506C258.002 -0.016049 257.436 -0.016049 257.056 0.366506C256.676 0.746937 256.676 1.31151 257.056 1.69164L259.523 4.15897C258.728 4.68969 258.007 5.33912 257.38 6.08192C255.88 7.86065 254.923 10.1756 254.791 12.6837C254.79 12.7098 254.787 12.7356 254.786 12.7618C254.778 12.9325 254.774 13.1042 254.774 13.2765H277.573C277.573 13.1042 277.569 12.9325 277.561 12.7618C277.56 12.7356 277.557 12.7098 277.556 12.6837C277.424 10.1756 276.467 7.8605 274.966 6.08207C274.34 5.33927 273.619 4.68984 272.824 4.15912L275.291 1.69179C275.671 1.31151 275.671 0.746937 275.291 0.366506ZM261.421 9.95666C260.634 9.95666 259.997 9.31891 259.997 8.53224C259.997 7.74558 260.634 7.10783 261.421 7.10783C262.208 7.10783 262.846 7.74558 262.846 8.53224C262.846 9.31891 262.208 9.95666 261.421 9.95666ZM270.926 9.95666C270.139 9.95666 269.502 9.31891 269.502 8.53224C269.502 7.74558 270.139 7.10783 270.926 7.10783C271.713 7.10783 272.35 7.74558 272.35 8.53224C272.35 9.31891 271.713 9.95666 270.926 9.95666Z" fill="#9CA3AF"/>
</g>
<g clip-path="url(#clip4_1_6334)">
<path d="M329.946 17.0999C326.032 23.8925 328.52 34.2007 332.849 40.451C335.009 43.5758 337.197 46.3807 340.193 46.3807C340.25 46.3807 340.306 46.3797 340.364 46.3774C341.772 46.3212 342.789 45.8878 343.773 45.469C344.877 44.9984 346.019 44.5118 347.81 44.5118C349.515 44.5118 350.602 44.9826 351.654 45.4377C352.69 45.8861 353.758 46.3501 355.336 46.3205C358.711 46.2576 360.783 43.2309 362.611 40.5607C364.519 37.7728 365.476 35.0659 365.799 34.0315L365.812 33.9903C365.873 33.8065 365.786 33.6058 365.61 33.5249C365.605 33.5226 365.587 33.5152 365.582 33.513C364.988 33.27 359.775 30.9572 359.72 24.6536C359.669 19.5322 363.631 16.8201 364.425 16.3286L364.462 16.3055C364.549 16.2501 364.608 16.1622 364.629 16.0617C364.649 15.9613 364.628 15.8569 364.57 15.7725C361.836 11.7705 357.644 11.1674 355.957 11.0948C355.712 11.0704 355.459 11.0581 355.205 11.0581C353.223 11.0581 351.325 11.8067 349.799 12.4081C348.746 12.8233 347.837 13.1819 347.209 13.1819C346.505 13.1819 345.59 12.8189 344.531 12.3987C343.114 11.8366 341.509 11.1996 339.81 11.1996C339.769 11.1996 339.729 11.2 339.69 11.2008C335.738 11.2589 332.004 13.5197 329.946 17.0999Z" fill="#9CA3AF"/>
<path d="M355.96 0.0798815C353.567 0.177342 350.697 1.65033 348.981 3.65996C347.523 5.34913 346.099 8.16546 346.474 11.0043C346.497 11.1819 346.642 11.319 346.821 11.3328C346.982 11.3454 347.147 11.3518 347.311 11.3519C349.651 11.3519 352.175 10.0574 353.899 7.97312C355.713 5.77222 356.631 2.94768 356.353 0.417654C356.331 0.219393 356.157 0.0721393 355.96 0.0798815Z" fill="#9CA3AF"/>
</g>
<g clip-path="url(#clip5_1_6334)">
<path d="M419.402 23.2321C419.402 28.0028 423.283 31.8837 428.054 31.8837C432.825 31.8837 436.706 28.0026 436.706 23.2321C436.706 18.4613 432.825 14.5801 428.054 14.5801C423.283 14.5801 419.402 18.4613 419.402 23.2321Z" fill="#9CA3AF"/>
<path d="M447.976 11.8116C448.044 11.693 448.043 11.5474 447.973 11.4301C445.958 8.03596 443.09 5.19291 439.679 3.20833C436.164 1.16272 432.144 0.081543 428.054 0.081543C420.976 0.081543 414.38 3.25797 409.956 8.79637C409.859 8.91842 409.846 9.08769 409.924 9.22295L416.441 20.5106C416.51 20.629 416.636 20.7004 416.77 20.7004C416.787 20.7004 416.804 20.6992 416.821 20.6969C416.974 20.6761 417.099 20.565 417.137 20.4157C418.423 15.4366 422.912 11.9591 428.054 11.9591C428.373 11.9591 428.703 11.9737 429.034 12.0019C429.045 12.003 429.056 12.0035 429.067 12.0035H447.646C447.783 12.0035 447.909 11.9303 447.976 11.8116Z" fill="#9CA3AF"/>
<path d="M431.475 34.2269C431.381 34.105 431.223 34.0526 431.073 34.0939C430.093 34.3669 429.078 34.5052 428.054 34.5052C423.706 34.5052 419.699 31.9551 417.845 28.0087C417.84 27.999 417.835 27.9896 417.83 27.9802L408.533 11.8782C408.466 11.7606 408.34 11.6885 408.205 11.6885C408.204 11.6885 408.203 11.6885 408.203 11.6885C408.066 11.6892 407.941 11.7629 407.874 11.8816C405.931 15.3299 404.904 19.2549 404.904 23.2322C404.904 28.8119 406.916 34.2016 410.572 38.4083C414.19 42.5732 419.172 45.314 424.6 46.1262C424.619 46.1291 424.638 46.1303 424.657 46.1303C424.791 46.1303 424.917 46.059 424.985 45.9406L431.504 34.6494C431.581 34.5158 431.57 34.3488 431.475 34.2269Z" fill="#9CA3AF"/>
<path d="M449.258 14.5356H436.207C436.052 14.5356 435.913 14.629 435.855 14.7717C435.797 14.9144 435.831 15.0784 435.941 15.1861C438.125 17.3269 439.327 20.1843 439.327 23.232C439.327 25.5391 438.631 27.7595 437.314 29.6531C437.308 29.6619 437.302 29.6709 437.297 29.6801L427.984 45.81C427.916 45.9281 427.916 46.0737 427.985 46.1915C428.053 46.3079 428.178 46.3793 428.313 46.3793C428.314 46.3793 428.316 46.3793 428.317 46.3793C434.445 46.311 440.196 43.8728 444.51 39.5142C448.827 35.152 451.205 29.3695 451.205 23.232C451.205 20.3147 450.669 17.4699 449.611 14.7766C449.554 14.6311 449.414 14.5356 449.258 14.5356Z" fill="#9CA3AF"/>
</g>
<g clip-path="url(#clip6_1_6334)">
<path d="M509.158 0.0795898C502.87 0.0795898 497.248 2.40255 492.899 6.79799C488.48 11.2866 486.046 17.1224 486.046 23.2303C486.046 29.451 488.398 35.0855 492.848 39.5236C497.254 43.9456 503.047 46.3809 509.158 46.3809C515.334 46.3809 521.222 43.9255 525.737 39.4672C530.061 35.2102 532.347 29.5956 532.347 23.2303C532.347 16.8853 530.038 11.2261 525.668 6.86448C521.222 2.42578 515.513 0.0795898 509.158 0.0795898ZM509.223 41.4436C504.404 41.4436 499.84 39.5353 496.372 36.0705C492.859 32.5598 490.925 27.9996 490.925 23.2304C490.925 18.448 492.86 13.844 496.374 10.2666C499.798 6.78888 504.241 4.95064 509.223 4.95064C514.182 4.95064 518.669 6.81272 522.199 10.3354C525.64 13.7676 527.459 18.2273 527.459 23.2321C527.459 28.2458 525.666 32.6603 522.273 35.9981C518.701 39.5095 514.066 41.4436 509.223 41.4436Z" fill="#9CA3AF"/>
<path d="M509.187 26.4003L506.347 24.9712C506.253 24.9239 506.144 24.9179 506.045 24.954C505.947 24.9903 505.867 25.0659 505.826 25.1626C505.315 26.3752 504.582 26.8926 503.377 26.8926C500.964 26.8926 500.703 24.3314 500.703 23.2304C500.703 20.8015 501.603 19.57 503.377 19.57C503.615 19.57 504.839 19.6482 505.561 21.1919C505.604 21.2857 505.685 21.3575 505.783 21.3906C505.881 21.4239 505.989 21.4154 506.08 21.3675L509.109 19.7849C509.2 19.7377 509.267 19.6561 509.297 19.5585C509.326 19.4608 509.315 19.3555 509.266 19.2659C508.02 16.9958 505.819 15.7959 502.901 15.7959C498.75 15.7959 495.851 18.853 495.851 23.2304C495.851 27.7536 498.666 30.6764 503.022 30.6764C505.645 30.6764 508.009 29.2748 509.346 26.927C509.398 26.8366 509.41 26.7291 509.38 26.6295C509.35 26.5299 509.28 26.447 509.187 26.4003Z" fill="#9CA3AF"/>
<path d="M522.532 26.6299C522.502 26.5302 522.433 26.4472 522.34 26.4001L519.509 24.9696C519.415 24.9221 519.305 24.9159 519.206 24.9523C519.107 24.9889 519.028 25.0649 518.987 25.1623C518.482 26.3752 517.748 26.8926 516.533 26.8926C514.111 26.8926 513.85 24.3314 513.85 23.2303C513.85 20.8064 514.753 19.5772 516.533 19.5772C516.772 19.5772 517.998 19.6551 518.719 21.1922C518.763 21.2858 518.843 21.3575 518.941 21.3906C519.039 21.4237 519.147 21.4153 519.238 21.3675L522.267 19.7869C522.357 19.7397 522.425 19.6582 522.454 19.5607C522.484 19.4631 522.473 19.3579 522.424 19.2685C521.165 16.964 519.02 15.7954 516.049 15.7954C511.898 15.7954 509 18.8528 509 23.2303C509 27.7536 511.818 30.6764 516.18 30.6764C518.791 30.6764 521.152 29.2749 522.498 26.9275C522.55 26.8373 522.562 26.7295 522.532 26.6299Z" fill="#9CA3AF"/>
</g>
<defs>
<clipPath id="clip0_1_6334">
<rect width="46.3015" height="46.3015" fill="white" transform="translate(0 0.0795898)"/>
</clipPath>
<clipPath id="clip1_1_6334">
<rect width="46.3011" height="46.3011" fill="white" transform="translate(81.1425 0.0795898)"/>
</clipPath>
<clipPath id="clip2_1_6334">
<rect width="46.3014" height="46.3014" fill="white" transform="translate(162.284 0.0795898)"/>
</clipPath>
<clipPath id="clip3_1_6334">
<rect width="45.4936" height="45.4936" fill="white" transform="translate(243.427 0.0795898)"/>
</clipPath>
<clipPath id="clip4_1_6334">
<rect width="46.3014" height="46.3014" fill="white" transform="translate(323.761 0.0795898)"/>
</clipPath>
<clipPath id="clip5_1_6334">
<rect width="46.3014" height="46.3014" fill="white" transform="translate(404.903 0.0795898)"/>
</clipPath>
<clipPath id="clip6_1_6334">
<rect width="46.3014" height="46.3014" fill="white" transform="translate(486.046 0.0795898)"/>
</clipPath>
</defs>
</svg>
