<svg width="82" height="82" viewBox="0 0 82 82" fill="none" xmlns="http://www.w3.org/2000/svg">
<rect x="1" y="1" width="80" height="80" rx="40" fill="white"/>
<rect x="1" y="1" width="80" height="80" rx="40" stroke="#BC72F1" stroke-width="2"/>
<g clip-path="url(#clip0_1_6176)">
<path d="M22 43.7086V28.4172L25.158 25.2086L28.3088 22H38.8885H49.4609V40.5V59H35.7305H22V43.7086ZM47.3652 40.5361V24.168H38.9463H30.5273V25.8156C30.5273 26.7189 30.5057 28.1643 30.4768 29.0242L30.4334 30.5996H27.2971H24.168V43.752V56.9043H35.7666H47.3652V40.5361ZM28.3521 26.7189V24.9268L26.6611 26.6611C25.7289 27.615 24.9629 28.4172 24.9629 28.4533C24.9629 28.4822 25.7289 28.5039 26.6611 28.5039H28.3594L28.3521 26.7189Z" fill="#6A0DAD"/>
<path d="M28.1426 52.8936V51.8457H35.7305H43.3184V52.8936V53.9414H35.7305H28.1426V52.8936Z" fill="#6A0DAD"/>
<path d="M28.1426 48.5576V47.5098H35.7305H43.3184V48.5576V49.6055H35.7305H28.1426V48.5576Z" fill="#6A0DAD"/>
<path d="M32.6086 43.1233L29.5156 41.3383V37.7973V34.2491L32.623 32.4569L35.7377 30.6575L38.8379 32.4497L41.9453 34.2418V37.7973V41.3456L38.9318 43.0872C37.2697 44.0483 35.8605 44.8432 35.8027 44.8649C35.7377 44.8866 34.3936 44.1567 32.6086 43.1233ZM34.7043 40.1315L34.6826 38.3971L33.3096 37.595C32.558 37.1614 31.8787 36.7711 31.8137 36.735C31.6908 36.67 31.6836 36.7711 31.6836 38.4188V40.1749L33.1506 41.0276C33.9527 41.4901 34.632 41.8731 34.6682 41.8731C34.6971 41.8731 34.7115 41.0926 34.7043 40.1315ZM38.7656 40.7747L39.8135 40.1676L39.8352 38.4116C39.8424 37.3204 39.8279 36.6627 39.7846 36.6844C39.7484 36.6916 39.0619 37.0819 38.267 37.5372L36.8145 38.3682V40.1243V41.8875L37.2697 41.6346C37.5154 41.4901 38.1875 41.1071 38.7656 40.7747ZM37.1902 35.7522C37.9996 35.2897 38.6717 34.8995 38.6861 34.885C38.7584 34.8272 38.4549 34.6321 37.1252 33.8661L35.7377 33.0711L34.2707 33.9166C33.4613 34.3791 32.8037 34.7911 32.8037 34.8272C32.8037 34.8778 34.791 36.0774 35.7088 36.5905C35.716 36.5977 36.3809 36.2147 37.1902 35.7522Z" fill="#FF9900"/>
<path d="M38.8379 28.251V27.2031H41.0781H43.3184V28.251V29.2988H41.0781H38.8379V28.251Z" fill="#BC72F1"/>
<path d="M54.6641 57.6631V56.3262H53.5801H52.4961V44.4529V32.5869L53.5801 31.5029L54.6641 30.4189V29.3566V28.2871H55.748H56.832V29.3566V30.4189L57.916 31.5029L59 32.5869V44.4529V56.3262H57.916H56.832V57.6631V59H55.748H54.6641V57.6631ZM56.832 52.3154V50.4004H55.748H54.6641V52.3154V54.2305H55.748H56.832V52.3154ZM56.832 40.8396V33.3746L56.29 32.8398L55.748 32.3051L55.2061 32.8398L54.6641 33.3746V40.8396V48.3047H55.748H56.832V40.8396Z" fill="#6A0DAD"/>
</g>
<defs>
<clipPath id="clip0_1_6176">
<rect width="37" height="37" fill="white" transform="translate(22 22)"/>
</clipPath>
</defs>
</svg>
