<svg width="82" height="82" viewBox="0 0 82 82" fill="none" xmlns="http://www.w3.org/2000/svg">
<rect x="1" y="1" width="80" height="80" rx="40" fill="white"/>
<rect x="1" y="1" width="80" height="80" rx="40" stroke="#BC72F1" stroke-width="2"/>
<g clip-path="url(#clip0_1_6188)">
<path d="M44.4057 54.8982V56.4391H44.66C45.5776 56.4391 46.5001 56.4391 47.4177 56.4391C47.9164 56.4391 48.2555 56.7583 48.2555 57.2171C48.2555 57.6659 47.9114 57.995 47.4127 57.995C42.8249 57.995 38.237 57.995 33.6492 57.995C33.1555 57.995 32.8064 57.6709 32.8064 57.2171C32.8064 56.7583 33.1455 56.4441 33.6442 56.4391C34.6415 56.4391 35.6339 56.4391 36.6462 56.4391V54.8982C36.5565 54.8982 36.4667 54.8982 36.3769 54.8982C32.6169 54.8982 28.8568 54.8982 25.0968 54.8982C23.6456 54.8982 22.4289 53.9507 22.0848 52.5444C22.0199 52.2851 22 52.0158 22 51.7515C22 43.5582 22 35.3599 22 27.1666C22 25.6107 22.9724 24.3989 24.4784 24.0698C24.7078 24.0199 24.9522 24 25.1866 24C35.4195 24 45.6524 24 55.8853 24C57.496 24 58.7278 25.0173 59.027 26.5981C59.0619 26.7826 59.0669 26.9771 59.0669 27.1716C59.0669 35.0857 59.0669 42.9947 59.0669 50.9088C59.0669 51.4773 58.7776 51.8114 58.2939 51.8114C57.8601 51.8114 57.5359 51.4972 57.5359 51.0634C57.5309 50.3802 57.5359 49.702 57.5359 49.0188C57.5359 48.934 57.5359 48.8542 57.5359 48.7495H23.5359C23.5359 48.8293 23.5359 48.9091 23.5359 48.9889C23.5359 49.8915 23.5359 50.7941 23.5359 51.7017C23.5359 52.709 24.1992 53.3673 25.2065 53.3673C34.8161 53.3673 44.4306 53.3673 54.0402 53.3673C54.2895 53.3673 54.5289 53.3822 54.7234 53.5617C54.9677 53.7911 55.0326 54.0704 54.9378 54.3796C54.8381 54.6937 54.6087 54.8733 54.2796 54.9032C54.1898 54.9132 54.095 54.9032 54.0053 54.9032C50.9035 54.9032 47.8017 54.9032 44.6999 54.9032C44.6101 54.9032 44.5154 54.9032 44.4007 54.9032L44.4057 54.8982ZM57.5309 47.1587C57.5309 47.0639 57.5309 46.9941 57.5309 46.9293C57.5309 40.3517 57.5309 33.7741 57.5309 27.1916C57.5309 26.2092 56.8677 25.5559 55.8853 25.5559C45.6524 25.5559 35.4195 25.5559 25.1916 25.5559C24.1942 25.5559 23.5409 26.2141 23.5409 27.2165C23.5409 33.7791 23.5409 40.3417 23.5409 46.9044C23.5409 46.9842 23.5409 47.0689 23.5409 47.1587H57.5309ZM42.8348 56.4341V54.9132H38.242V56.4341H42.8348Z" fill="#6A0DAD"/>
<path d="M40.5111 51.8065C40.2517 51.8065 39.9924 51.8115 39.7331 51.8065C39.3192 51.7965 39.0001 51.4724 38.9851 51.0584C38.9701 50.6545 39.2893 50.2905 39.6982 50.2805C40.2567 50.2655 40.8152 50.2655 41.3738 50.2805C41.7827 50.2905 42.1018 50.6545 42.0869 51.0584C42.0719 51.4724 41.7528 51.7965 41.3389 51.8065C41.0646 51.8115 40.7903 51.8065 40.5111 51.8065Z" fill="#6A0DAD"/>
<path d="M57.9997 53.7613C57.9997 54.1951 57.6656 54.5293 57.2268 54.5293C56.7879 54.5293 56.4488 54.1802 56.4588 53.7314C56.4638 53.3175 56.8079 52.9833 57.2318 52.9883C57.6706 52.9933 57.9997 53.3274 57.9997 53.7613Z" fill="#6A0DAD"/>
<path d="M40.556 44.0818C44.8995 44.0818 49.243 44.0818 53.5815 44.0818C54.15 44.0818 54.504 44.4857 54.4143 45.0093C54.3544 45.3484 54.0702 45.6028 53.7161 45.6377C53.6613 45.6377 53.6114 45.6377 53.5566 45.6377C44.8695 45.6377 36.1875 45.6377 27.5005 45.6377C26.9121 45.6377 26.553 45.2437 26.6428 44.7101C26.7026 44.361 26.9969 44.1067 27.3609 44.0818C27.4207 44.0818 27.4856 44.0818 27.5454 44.0818C31.8789 44.0818 36.2125 44.0818 40.551 44.0818H40.556Z" fill="#6A0DAD"/>
<path d="M40.5109 28.6426C36.1674 28.6426 31.8289 28.6426 27.4854 28.6426C27.0216 28.6426 26.7024 28.3933 26.6476 27.9993C26.5778 27.5356 26.882 27.1466 27.3507 27.1067C27.4355 27.1017 27.5203 27.1067 27.605 27.1067C36.2272 27.1067 44.8494 27.1067 53.4716 27.1067C53.6162 27.1067 53.7658 27.1067 53.9054 27.1416C54.2595 27.2364 54.4789 27.6004 54.429 27.9794C54.3841 28.3434 54.0849 28.6227 53.7209 28.6426C53.6212 28.6476 53.5214 28.6426 53.4217 28.6426C49.1181 28.6426 44.8145 28.6426 40.5109 28.6426Z" fill="#6A0DAD"/>
<path d="M51.4769 35.4596C51.4769 36.2724 51.5267 37.0853 51.4669 37.8932C51.3722 39.1399 50.1953 40.1721 48.9436 40.227C47.5273 40.2918 46.3554 39.3044 46.1211 38.0378C46.0911 37.8732 46.0662 37.7037 46.0662 37.5391C46.0662 36.1378 46.0612 34.7365 46.0662 33.3352C46.0662 32.6969 46.6447 32.3179 47.1832 32.5872C47.4775 32.7318 47.6171 32.9812 47.6171 33.3103C47.6171 34.7016 47.6171 36.0979 47.6171 37.4892C47.6171 37.958 47.8216 38.317 48.2355 38.5414C48.6294 38.7509 49.0333 38.7409 49.4123 38.5015C49.7764 38.2722 49.9559 37.933 49.9559 37.4992C49.9559 36.0979 49.9559 34.6966 49.9559 33.2953C49.9559 32.9462 50.1554 32.657 50.4646 32.5473C50.7837 32.4326 51.1378 32.5124 51.3273 32.7966C51.432 32.9512 51.4968 33.1607 51.5068 33.3452C51.5267 34.0483 51.5168 34.7515 51.5168 35.4596C51.5068 35.4596 51.4968 35.4596 51.4819 35.4596H51.4769Z" fill="#FF9900"/>
<path d="M26.6327 35.5493C26.6327 34.7913 26.6277 34.0333 26.6327 33.2753C26.6327 32.8664 26.9219 32.5522 27.3109 32.5074C27.6749 32.4625 28.029 32.6919 28.1387 33.0559C28.1686 33.1656 28.1736 33.2803 28.1736 33.395C28.1736 34.7664 28.1736 36.1378 28.1736 37.5041C28.1736 38.1225 28.6124 38.6062 29.2158 38.6711C29.8192 38.7409 30.3528 38.3569 30.4875 37.7585C30.5124 37.6537 30.5124 37.544 30.5124 37.4393C30.5124 36.063 30.5124 34.6816 30.5124 33.3053C30.5124 32.7368 31.036 32.3627 31.5496 32.5473C31.8538 32.657 32.0633 32.9362 32.0633 33.2903C32.0633 34.7365 32.0932 36.1826 32.0533 37.6288C32.0184 38.9902 30.9163 40.1222 29.6198 40.212C28.1536 40.3167 26.9319 39.4091 26.6726 37.9978C26.6077 37.6388 26.6327 37.2648 26.6277 36.9007C26.6227 36.4469 26.6277 35.9981 26.6277 35.5443L26.6327 35.5493Z" fill="#FF9900"/>
<path d="M35.7785 38.0928C35.4793 38.6862 35.205 39.2397 34.9208 39.7883C34.7512 40.1174 34.467 40.257 34.1079 40.2171C33.8137 40.1822 33.5295 39.9628 33.4896 39.6536C33.4597 39.4541 33.4896 39.2198 33.5743 39.0402C33.9733 38.2074 34.3922 37.3846 34.8161 36.5618C34.8909 36.4172 34.8859 36.3025 34.8161 36.1579C34.3972 35.34 33.9883 34.5222 33.5743 33.7044C33.345 33.2456 33.4696 32.7868 33.8785 32.5823C34.2974 32.3729 34.7213 32.5424 34.9607 33.0062C35.23 33.5348 35.4943 34.0684 35.7785 34.6369C35.978 34.2429 36.1675 33.8789 36.352 33.5099C36.4467 33.3204 36.5415 33.1259 36.6412 32.9364C36.8557 32.5325 37.2995 32.3879 37.6934 32.5873C38.0724 32.7768 38.222 33.2256 38.0226 33.6296C37.6087 34.4723 37.1848 35.3101 36.7559 36.1479C36.6761 36.2975 36.6712 36.4172 36.7509 36.5718C37.1798 37.4046 37.5987 38.2473 38.0176 39.0901C38.1772 39.4093 38.1273 39.7484 37.9029 39.9827C37.6785 40.2171 37.3244 40.3169 37.0452 40.1623C36.8756 40.0675 36.716 39.9079 36.6213 39.7384C36.3271 39.2098 36.0677 38.6662 35.7785 38.0928Z" fill="#FF9900"/>
<path d="M45.1038 31.0214C45.0838 31.0912 45.0539 31.2358 45.004 31.3705C43.7424 34.8812 42.4807 38.3919 41.219 41.9076C41.0545 42.3614 40.7353 42.6008 40.3613 42.5459C39.8327 42.4711 39.5485 41.9924 39.728 41.4737C40.0272 40.626 40.3314 39.7782 40.6406 38.9305C41.613 36.2226 42.5904 33.5148 43.5628 30.812C43.7174 30.3831 43.9568 30.1936 44.3408 30.1936C44.7647 30.1936 45.0988 30.5277 45.1038 31.0214Z" fill="#6A0DAD"/>
<path d="M52.8932 36.3572C52.8932 35.3549 52.8932 34.3525 52.8932 33.3502C52.8932 32.8465 53.2074 32.5024 53.6562 32.5024C54.11 32.5024 54.4291 32.8415 54.4291 33.3402C54.4291 35.3599 54.4291 37.3845 54.4291 39.4042C54.4291 39.9029 54.11 40.227 53.6412 40.222C53.1924 40.222 52.8882 39.8829 52.8882 39.3892C52.8882 38.3769 52.8882 37.3696 52.8882 36.3572H52.8932Z" fill="#FF9900"/>
</g>
<defs>
<clipPath id="clip0_1_6188">
<rect width="37.0669" height="34" fill="white" transform="translate(22 24)"/>
</clipPath>
</defs>
</svg>
