<svg width="82" height="82" viewBox="0 0 82 82" fill="none" xmlns="http://www.w3.org/2000/svg">
<rect x="1" y="1" width="80" height="80" rx="40" fill="white"/>
<rect x="1" y="1" width="80" height="80" rx="40" stroke="#BC72F1" stroke-width="2"/>
<g clip-path="url(#clip0_1_6238)">
<path d="M46.9282 31.8186L43.68 31.3466L42.2274 28.4033C41.7264 27.388 40.274 27.3874 39.7727 28.4033L38.3201 31.3466L35.0719 31.8186C33.9516 31.9815 33.5021 33.3625 34.3134 34.1532L36.6638 36.4442L36.109 39.6793C35.9177 40.795 37.0922 41.6492 38.0949 41.1221L41.0002 39.5947L43.9055 41.1221C44.9041 41.6475 46.0836 40.8004 45.8913 39.6793L45.3365 36.4442L47.6869 34.1532C48.4974 33.363 48.0492 31.9815 46.9282 31.8186ZM42.7244 37.4087C40.8815 36.4399 41.1745 36.4106 39.2756 37.4087C39.6274 35.3582 39.747 35.627 38.2099 34.1287C40.3303 33.8206 40.0786 33.9686 41 32.1017C41.923 33.972 41.6702 33.8207 43.7901 34.1287C42.2965 35.5847 42.3623 35.2973 42.7244 37.4087Z" fill="#FF9900"/>
<path d="M60.8138 52.622L52.5451 38.2995C55.1569 30.4531 49.3013 22.2944 40.9999 22.2944C32.6968 22.2944 26.844 30.4557 29.4548 38.2993L21.1861 52.622C20.6048 53.6288 21.4698 54.86 22.6149 54.6532L27.96 53.6868L29.795 58.7994C30.1872 59.892 31.6843 60.0333 32.2685 59.0214L39.481 46.5289C40.493 46.6543 41.5061 46.6543 42.5188 46.5289L49.7313 59.0214C50.3153 60.0331 51.8125 59.8924 52.2048 58.7994L54.0398 53.6868L59.3848 54.6532C60.5293 54.8598 61.3956 53.6296 60.8138 52.622ZM31.3742 55.0957L30.1451 51.6714C29.9193 51.0424 29.2722 50.6679 28.6133 50.787L25.0326 51.4344L30.907 41.2592C32.3046 43.342 34.3411 44.958 36.7128 45.849L31.3742 55.0957ZM32.231 37.9287C29.7848 31.7501 34.3319 25.0318 40.9999 25.0318C47.6731 25.0318 52.2138 31.7535 49.769 37.9286C46.6019 45.9256 35.3455 45.7934 32.231 37.9287ZM53.3866 50.7869C52.7286 50.668 52.0807 51.0419 51.8548 51.6713L50.6257 55.0956L45.287 45.8488C47.6034 44.9731 49.5868 43.4622 51.0928 41.2589L56.9672 51.4341L53.3866 50.7869Z" fill="#6A0DAD"/>
</g>
<defs>
<clipPath id="clip0_1_6238">
<rect width="40" height="40" fill="white" transform="translate(21 21)"/>
</clipPath>
</defs>
</svg>
