<svg width="82" height="82" viewBox="0 0 82 82" fill="none" xmlns="http://www.w3.org/2000/svg">
<g clip-path="url(#clip0_1_6217)">
<rect width="82" height="82" rx="41" fill="white"/>
<path d="M47.2731 53.7251C47.071 53.6021 46.895 53.4372 46.755 53.2375C46.6904 53.1453 46.6358 53.0479 46.5905 52.9473H23.6266V30.3128H54.7968V45.0923C55.4623 45.1524 56.0206 45.5894 56.255 46.1879C56.4626 46.0741 56.6939 46.0038 56.9371 45.9824C57.1015 45.9681 57.2649 45.9783 57.4233 46.0096V24.674C57.4233 23.467 56.4416 22.4851 55.2347 22.4851H23.1888C21.9819 22.4851 21 23.467 21 24.674V53.3851C21 54.5921 21.9819 55.574 23.1888 55.574H47.0736C46.8873 55.1965 46.843 54.7704 46.9527 54.3605C47.016 54.1247 47.1254 53.9096 47.2731 53.7251ZM52.3932 26.1607C52.3932 25.7144 52.755 25.3524 53.2014 25.3524H54.0095C54.456 25.3524 54.8177 25.7143 54.8177 26.1607V27.0767C54.8177 27.5231 54.4559 27.8849 54.0095 27.8849H53.2014C52.7549 27.8849 52.3932 27.5231 52.3932 27.0767V26.1607ZM48.6351 26.1607C48.6351 25.7144 48.9969 25.3524 49.4433 25.3524H50.2516C50.698 25.3524 51.0597 25.7143 51.0597 26.1607V27.0767C51.0597 27.5231 50.6979 27.8849 50.2516 27.8849H49.4433C48.9969 27.8849 48.6351 27.5231 48.6351 27.0767V26.1607ZM44.8769 26.1607C44.8769 25.7144 45.2389 25.3524 45.6851 25.3524H46.4933C46.9397 25.3524 47.3016 25.7143 47.3016 26.1607V27.0767C47.3016 27.5231 46.9397 27.8849 46.4933 27.8849H45.6851C45.2389 27.8849 44.8769 27.5231 44.8769 27.0767V26.1607Z" fill="#6A0DAD"/>
<path d="M59.9948 52.1837L59.752 50.8064C59.7192 50.621 59.5425 50.4971 59.3568 50.5298L58.132 50.7456C57.985 50.4006 57.7972 50.0774 57.5743 49.7816L58.3743 48.828C58.4325 48.7589 58.4608 48.6693 58.453 48.5791C58.445 48.4889 58.4015 48.4057 58.3322 48.3475L57.2611 47.4485C57.1918 47.3903 57.102 47.3621 57.0119 47.37C56.9217 47.3779 56.8385 47.4213 56.7803 47.4905L55.9811 48.4434C55.653 48.2762 55.302 48.1473 54.9343 48.0623V46.8185C54.9343 46.6302 54.7815 46.4773 54.5932 46.4773H53.1945C53.0063 46.4773 52.8534 46.6302 52.8534 46.8185V48.0623C52.4856 48.1472 52.135 48.2762 51.8067 48.4434L51.0072 47.4906C50.8861 47.3463 50.671 47.3275 50.5266 47.4486L49.4553 48.3475C49.386 48.4057 49.3427 48.4889 49.3347 48.5791C49.3269 48.6693 49.3551 48.759 49.4132 48.8283L50.2133 49.7817C49.9908 50.0774 49.8027 50.4008 49.6556 50.7457L48.4308 50.5298C48.2456 50.4972 48.0685 50.621 48.0357 50.8064L47.7929 52.1837C47.7772 52.2728 47.7975 52.3644 47.8493 52.4386C47.9014 52.5128 47.9802 52.5632 48.0694 52.5789L49.2951 52.7949C49.3151 53.1747 49.3812 53.5421 49.4876 53.8919L48.4103 54.5137C48.3319 54.5588 48.2748 54.6334 48.2513 54.7207C48.2279 54.8081 48.2403 54.9012 48.2854 54.9796L48.9846 56.1907C49.0297 56.2691 49.1043 56.3262 49.1916 56.3496C49.2207 56.3574 49.2503 56.3612 49.28 56.3612C49.3393 56.3612 49.3981 56.3458 49.4505 56.3155L50.5286 55.693C50.7822 55.9647 51.0684 56.2054 51.3812 56.409L50.9555 57.5785C50.9246 57.6636 50.9286 57.7574 50.9669 57.8394C51.0052 57.9214 51.0744 57.9848 51.1593 58.0157L52.4733 58.4939C52.511 58.5076 52.5506 58.5147 52.59 58.5147C52.6393 58.5147 52.6888 58.504 52.7344 58.4826C52.8164 58.4445 52.8796 58.3752 52.9105 58.2901L53.3362 57.1206C53.5187 57.1427 53.7044 57.1541 53.8928 57.1541C54.0813 57.1541 54.267 57.1425 54.4495 57.1206L54.8753 58.2901C54.9061 58.3752 54.9696 58.4445 55.0514 58.4826C55.0969 58.5039 55.1463 58.5147 55.1958 58.5147C55.2351 58.5147 55.2747 58.5078 55.3124 58.4939L56.6265 58.0157C56.7113 57.9848 56.7806 57.9212 56.8188 57.8394C56.8571 57.7574 56.8611 57.6636 56.8302 57.5785L56.4045 56.4092C56.717 56.2056 57.0032 55.9647 57.2571 55.6932L58.3352 56.3157C58.3875 56.3458 58.4464 56.3614 58.5057 56.3614C58.5353 56.3614 58.5652 56.3574 58.594 56.3498C58.6814 56.3264 58.7559 56.2691 58.8011 56.1909L59.5003 54.9796C59.5454 54.9014 59.5578 54.8081 59.5344 54.7207C59.5109 54.6336 59.4538 54.559 59.3754 54.5137L58.2982 53.8921C58.4047 53.5422 58.4706 53.1748 58.4906 52.7951L59.7163 52.579C59.8055 52.5633 59.8846 52.5129 59.9364 52.4387C59.9902 52.3644 60.0105 52.2728 59.9948 52.1837ZM53.894 54.3724C52.858 54.3724 52.0179 53.5323 52.0179 52.4963C52.0179 51.4602 52.8581 50.6202 53.894 50.6202C54.93 50.6202 55.7701 51.4602 55.7701 52.4963C55.7701 53.5323 54.93 54.3724 53.894 54.3724Z" fill="#6A0DAD"/>
<path d="M36.2956 42.8597C36.2956 42.4184 36.037 42.013 35.6366 41.8271L31.9723 40.1245L35.6367 38.4218C36.037 38.2357 36.2956 37.8304 36.2956 37.3892V37.3596C36.2956 36.9686 36.0988 36.6097 35.7695 36.3999C35.5873 36.2835 35.3751 36.2219 35.156 36.2219C34.9909 36.2219 34.8251 36.2582 34.6768 36.3271L28.8186 39.0514C28.4184 39.2375 28.1599 39.6428 28.1599 40.0838V40.1653C28.1599 40.6058 28.4183 41.0108 28.8187 41.1978L34.6774 43.9223C34.8289 43.9925 34.9902 44.028 35.1568 44.028C35.374 44.028 35.5855 43.9664 35.7695 43.8493C36.099 43.6387 36.2957 43.28 36.2957 42.8895L36.2956 42.8597Z" fill="#FF9900"/>
<path d="M42.0756 33.4459C41.8619 33.1534 41.5181 32.9788 41.156 32.9788H41.1269C40.6296 32.9788 40.1937 33.2968 40.0422 33.7697L36.1824 45.729C36.0726 46.0743 36.1344 46.4546 36.3478 46.7471C36.5615 47.0395 36.9053 47.2141 37.2674 47.2141H37.2966C37.7937 47.2141 38.2293 46.896 38.3806 46.4232L42.2399 34.4648C42.3508 34.1198 42.2893 33.7389 42.0756 33.4459Z" fill="#FF9900"/>
<path d="M49.6049 39.0512L43.7466 36.327C43.5988 36.2582 43.4333 36.2219 43.2682 36.2219C43.0492 36.2219 42.8369 36.2833 42.6547 36.3995C42.3248 36.6097 42.1281 36.9685 42.1281 37.3595V37.3891C42.1281 37.8299 42.3865 38.2353 42.7872 38.4222L46.4514 40.1245L42.7871 41.827C42.3867 42.0129 42.1281 42.4183 42.1281 42.8596V42.8894C42.1281 43.2799 42.3248 43.6385 42.6545 43.8493C42.8379 43.9662 43.0496 44.0279 43.267 44.0279C43.4335 44.0279 43.5946 43.9924 43.7471 43.922L49.6057 41.1975C50.0057 41.0109 50.264 40.6058 50.264 40.1653V40.0838C50.2637 39.6427 50.0052 39.2374 49.6049 39.0512Z" fill="#FF9900"/>
</g>
<rect x="1" y="1" width="80" height="80" rx="40" stroke="#BC72F1" stroke-width="2"/>
<defs>
<clipPath id="clip0_1_6217">
<rect width="82" height="82" rx="41" fill="white"/>
</clipPath>
</defs>
</svg>
