<svg width="263" height="67" viewBox="0 0 263 67" fill="none" xmlns="http://www.w3.org/2000/svg">
<rect x="0.5" y="0.5" width="262" height="66" rx="19.5" fill="url(#paint0_linear_1_6679)"/>
<rect x="0.5" y="0.5" width="262" height="66" rx="19.5" stroke="url(#paint1_linear_1_6679)"/>
<path d="M76.5118 38.718C75.2158 39.816 73.4338 40.716 71.1298 40.716C67.2058 40.716 64.5058 37.962 64.5058 34.236V34.2C64.5058 30.618 67.2958 27.684 71.1118 27.684C73.3798 27.684 74.7478 28.296 76.0618 29.412L74.3158 31.518C73.3438 30.708 72.4798 30.24 71.0218 30.24C69.0058 30.24 67.4038 32.022 67.4038 34.164V34.2C67.4038 36.504 68.9878 38.196 71.2198 38.196C72.2278 38.196 73.1278 37.944 73.8298 37.44V35.64H71.0398V33.246H76.5118V38.718ZM88.773 40.5H79.179V27.9H88.683V30.366H81.933V32.922H87.873V35.388H81.933V38.034H88.773V40.5ZM100.778 30.456H96.9436V40.5H94.1716V30.456H90.3376V27.9H100.778V30.456ZM111.204 40.5H108.432V27.9H111.204V40.5ZM125.549 40.5H123.191L117.089 32.49V40.5H114.353V27.9H116.909L122.813 35.658V27.9H125.549V40.5ZM143.51 30.456H139.676V40.5H136.904V30.456H133.07V27.9H143.51V30.456ZM157.931 34.2C157.931 37.782 155.105 40.716 151.217 40.716C147.329 40.716 144.539 37.818 144.539 34.236V34.2C144.539 30.618 147.365 27.684 151.253 27.684C155.141 27.684 157.931 30.582 157.931 34.164V34.2ZM155.033 34.236V34.2C155.033 32.04 153.449 30.24 151.217 30.24C148.985 30.24 147.437 32.004 147.437 34.164V34.2C147.437 36.36 149.021 38.16 151.253 38.16C153.485 38.16 155.033 36.396 155.033 34.236ZM171.172 35.01C171.172 38.826 169.03 40.698 165.646 40.698C162.262 40.698 160.192 38.808 160.192 35.1V27.9H162.964V35.028C162.964 37.08 163.99 38.142 165.682 38.142C167.374 38.142 168.4 37.116 168.4 35.118V27.9H171.172V35.01ZM185.065 38.466C183.769 39.852 182.329 40.716 179.899 40.716C176.191 40.716 173.437 37.854 173.437 34.236V34.2C173.437 30.618 176.137 27.684 180.007 27.684C182.383 27.684 183.805 28.476 184.975 29.628L183.211 31.662C182.239 30.78 181.249 30.24 179.989 30.24C177.865 30.24 176.335 32.004 176.335 34.164V34.2C176.335 36.36 177.829 38.16 179.989 38.16C181.429 38.16 182.311 37.584 183.301 36.684L185.065 38.466ZM197.94 40.5H195.168V35.442H190.056V40.5H187.284V27.9H190.056V32.886H195.168V27.9H197.94V40.5Z" fill="white"/>
<defs>
<linearGradient id="paint0_linear_1_6679" x1="1.31379e-07" y1="36.5" x2="268.5" y2="39.5" gradientUnits="userSpaceOnUse">
<stop stop-color="#5F0384"/>
<stop offset="1" stop-color="#770148"/>
</linearGradient>
<linearGradient id="paint1_linear_1_6679" x1="4.8828e-07" y1="29.5" x2="263" y2="23.5" gradientUnits="userSpaceOnUse">
<stop stop-color="#F904A6"/>
<stop offset="0.996041" stop-color="#410A54"/>
</linearGradient>
</defs>
</svg>
