<svg width="82" height="82" viewBox="0 0 82 82" fill="none" xmlns="http://www.w3.org/2000/svg">
<rect x="1" y="1" width="80" height="80" rx="40" fill="white"/>
<rect x="1" y="1" width="80" height="80" rx="40" stroke="#BC72F1" stroke-width="2"/>
<g clip-path="url(#clip0_1_6256)">
<path d="M58.9904 45.3221L55.0529 41.3846C54.9311 41.2627 54.7865 41.166 54.6272 41.1C54.468 41.034 54.2974 41 54.125 41C53.9526 41 53.782 41.034 53.6228 41.1C53.4635 41.166 53.3189 41.2627 53.1971 41.3846L41 53.5815V59.375H46.7935L58.9904 47.178C59.1124 47.0562 59.2091 46.9115 59.2751 46.7523C59.3411 46.5931 59.375 46.4224 59.375 46.25C59.375 46.0777 59.3411 45.907 59.2751 45.7478C59.2091 45.5886 59.1124 45.4439 58.9904 45.3221ZM45.7065 56.75H43.625V54.6686L50.1875 48.1061L52.269 50.1875L45.7065 56.75ZM54.125 48.3315L52.0435 46.25L54.125 44.1686L56.2065 46.25L54.125 48.3315Z" fill="#6A0DAD"/>
<path d="M46.25 37.0625V34.4375H43.4385C43.3163 33.9677 43.1286 33.5175 42.8809 33.1001L44.8719 31.1095L43.0155 29.2531L41.0249 31.2441C40.6075 30.9964 40.1572 30.8087 39.6875 30.6865V27.875H37.0625V30.6865C36.5928 30.8087 36.1425 30.9964 35.7251 31.2441L33.7345 29.2531L31.8781 31.1095L33.8691 33.1001C33.6214 33.5175 33.4337 33.9677 33.3115 34.4375H30.5V37.0625H33.3115C33.4337 37.5323 33.6214 37.9825 33.8691 38.3999L31.8781 40.3905L33.7345 42.2469L35.7251 40.2563C36.1426 40.5038 36.5928 40.6914 37.0625 40.8135V43.625H39.6875V40.8135C40.1572 40.6913 40.6075 40.5036 41.0249 40.2559L43.0155 42.2469L44.8719 40.3905L42.8809 38.3999C43.1286 37.9825 43.3163 37.5323 43.4385 37.0625H46.25ZM38.375 38.375C37.8558 38.375 37.3483 38.221 36.9166 37.9326C36.4849 37.6442 36.1485 37.2342 35.9498 36.7545C35.7511 36.2749 35.6992 35.7471 35.8004 35.2379C35.9017 34.7287 36.1517 34.261 36.5188 33.8938C36.886 33.5267 37.3537 33.2767 37.8629 33.1754C38.3721 33.0742 38.8999 33.1261 39.3795 33.3248C39.8592 33.5235 40.2692 33.8599 40.5576 34.2916C40.846 34.7233 41 35.2308 41 35.75C40.9991 36.4459 40.7223 37.1131 40.2302 37.6052C39.7381 38.0973 39.0709 38.3741 38.375 38.375Z" fill="#FF9900"/>
<path d="M35.75 59.375H27.875C27.179 59.3743 26.5118 59.0975 26.0197 58.6054C25.5275 58.1132 25.2507 57.446 25.25 56.75V25.25C25.2507 24.554 25.5275 23.8868 26.0197 23.3947C26.5118 22.9025 27.179 22.6257 27.875 22.625H48.875C49.571 22.6257 50.2382 22.9025 50.7303 23.3947C51.2225 23.8868 51.4993 24.554 51.5 25.25V38.375H48.875V25.25H27.875V56.75H35.75V59.375Z" fill="#6A0DAD"/>
</g>
<defs>
<clipPath id="clip0_1_6256">
<rect width="42" height="42" fill="white" transform="translate(20 20)"/>
</clipPath>
</defs>
</svg>
