<svg width="40" height="40" viewBox="0 0 40 40" fill="none" xmlns="http://www.w3.org/2000/svg">
<g clip-path="url(#clip0_1_6386)">
<mask id="mask0_1_6386" style="mask-type:luminance" maskUnits="userSpaceOnUse" x="0" y="0" width="40" height="40">
<path d="M0 3.8147e-06H40V40H0V3.8147e-06Z" fill="white"/>
</mask>
<g mask="url(#mask0_1_6386)">
<path d="M31.7188 20C31.7188 26.4721 26.4721 31.7188 20 31.7188C13.5279 31.7188 8.28125 26.4721 8.28125 20C8.28125 13.5279 13.5279 8.28125 20 8.28125C26.4721 8.28125 31.7188 13.5279 31.7188 20Z" stroke="#263238" stroke-width="2.75391" stroke-miterlimit="10" stroke-linecap="round" stroke-linejoin="round"/>
<path d="M25.8594 16.4844L18.8281 23.5156L14.1406 18.8281" stroke="#FF9900" stroke-width="2.75391" stroke-miterlimit="10" stroke-linecap="round" stroke-linejoin="round"/>
<path d="M18.4802 1.73145C19.3561 0.985356 20.6439 0.985356 21.5198 1.73145L24.5654 4.41934L29.7192 4.02051C30.8664 3.93176 31.9084 4.68872 32.1784 5.80715L33.2116 10.0865L37.7147 12.782C38.6949 13.3845 39.0929 14.6093 38.654 15.6729L36.875 19.9836L38.654 24.2943C39.0929 25.3579 38.6949 26.5827 37.7147 27.1852L33.2116 29.8807L32.1784 34.16C31.9084 35.2784 30.8664 36.0354 29.7192 35.9467L24.6158 35.5517L21.5198 38.2686C20.6439 39.0146 19.3561 39.0146 18.4802 38.2686L15.3842 35.5517L10.2808 35.9467C9.13359 36.0354 8.09164 35.2784 7.82164 34.16L6.78422 29.8637L2.28875 27.1852C1.30844 26.5827 0.910468 25.3579 1.34945 24.2943L3.12836 19.9836L1.34945 15.6729C0.910468 14.6093 1.30844 13.3845 2.28875 12.782L6.39891 10.3402L7.82164 5.80715C8.09164 4.68872 9.13359 3.93176 10.2808 4.02051L15.4347 4.41934L18.4802 1.73145Z" stroke="#263238" stroke-width="2.75391" stroke-miterlimit="10" stroke-linecap="round" stroke-linejoin="round"/>
</g>
</g>
<defs>
<clipPath id="clip0_1_6386">
<rect width="40" height="40" fill="white"/>
</clipPath>
</defs>
</svg>
