<svg width="59" height="59" viewBox="0 0 59 59" fill="none" xmlns="http://www.w3.org/2000/svg">
<g clip-path="url(#clip0_1_6100)">
<path d="M29.486 46.083C23.2801 46.083 18.2299 51.1332 18.2299 57.3391C18.2299 58.2423 18.9582 58.9804 19.8712 58.9804H39.13C40.0331 58.9804 40.7712 58.2521 40.7712 57.3391C40.7421 51.143 35.6919 46.083 29.486 46.083ZM21.6582 55.7174C22.4156 52.0948 25.6401 49.3657 29.486 49.3657C33.3319 49.3657 36.5466 52.0948 37.3138 55.7174H21.6582Z" fill="white"/>
<path d="M29.4859 44.4224C32.5744 44.4224 35.0897 41.9167 35.0897 38.8186C35.0897 35.7302 32.584 33.2148 29.4859 33.2148C26.3878 33.2148 23.8821 35.7206 23.8821 38.8186C23.8821 41.9167 26.3974 44.4224 29.4859 44.4224ZM29.4859 36.5072C30.7582 36.5072 31.8071 37.5561 31.8071 38.8282C31.8071 40.1006 30.7582 41.1495 29.4859 41.1495C28.2136 41.1495 27.1647 40.1006 27.1647 38.8282C27.1647 37.5367 28.2136 36.5072 29.4859 36.5072Z" fill="white"/>
<path d="M11.2561 12.8779C5.05019 12.8779 0 17.9281 0 24.134C0 25.0372 0.728323 25.7753 1.64128 25.7753H20.9001C21.8033 25.7753 22.5413 25.047 22.5413 24.134C22.5317 17.9281 17.4718 12.8779 11.2561 12.8779ZM3.44766 22.5025C4.20513 18.88 7.41979 16.1509 11.2561 16.1509C15.102 16.1509 18.3167 18.88 19.0839 22.5025H3.44766Z" fill="white"/>
<path d="M11.2561 11.2175C14.3445 11.2175 16.8598 8.71178 16.8598 5.61371C16.8598 2.51563 14.3445 0.0195312 11.2561 0.0195312C8.1676 0.0195312 5.66203 2.52524 5.66203 5.62332C5.66203 8.7214 8.16775 11.2175 11.2561 11.2175ZM11.2561 3.29248C12.5284 3.29248 13.5773 4.34139 13.5773 5.61371C13.5773 6.88602 12.5284 7.93493 11.2561 7.93493C9.98375 7.93493 8.93483 6.89578 8.93483 5.61371C8.93483 4.33163 9.9839 3.29248 11.2561 3.29248Z" fill="white"/>
<path d="M47.7148 12.8779C41.5089 12.8779 36.4587 17.9281 36.4587 24.134C36.4587 25.0372 37.187 25.7753 38.1 25.7753H57.3587C58.2619 25.7753 59 25.047 59 24.134C58.9709 17.9281 53.9207 12.8779 47.7148 12.8779ZM39.887 22.5025C40.6444 18.88 43.8688 16.1509 47.7148 16.1509C51.5607 16.1509 54.7754 18.88 55.5426 22.5025H39.887Z" fill="white"/>
<path d="M47.715 11.2175C50.8035 11.2175 53.3188 8.71178 53.3188 5.61371C53.3188 2.51563 50.8035 0.0195312 47.715 0.0195312C44.6266 0.0195312 42.1112 2.52524 42.1112 5.62332C42.1112 8.7214 44.6267 11.2175 47.715 11.2175ZM47.715 3.29248C48.9873 3.29248 50.0363 4.34139 50.0363 5.61371C50.0363 6.88602 48.9873 7.93493 47.715 7.93493C46.4427 7.93493 45.3938 6.88602 45.3938 5.61371C45.3938 4.34139 46.4233 3.29248 47.715 3.29248Z" fill="white"/>
<path d="M37.4396 8.41061L34.0987 3.54491C33.584 2.79706 32.5739 2.61257 31.8456 3.12727L31.8067 3.14665C31.0588 3.66134 30.8743 4.67135 31.389 5.39982L32.3796 6.83724C28.4463 6.32254 24.4061 6.847 20.6865 8.39108L20.6767 8.40085C19.8512 8.75043 19.4531 9.69254 19.8027 10.5278L19.8221 10.5472C20.1717 11.3727 21.1138 11.7708 21.9491 11.4213L21.9588 11.4115C25.1735 10.0809 28.6794 9.62448 32.0787 10.0907L30.2917 11.3241C29.5536 11.8387 29.3594 12.8488 29.8741 13.5772L29.8935 13.6161C30.4081 14.3542 31.4183 14.5485 32.1466 14.0338L37.0123 10.6929C37.76 10.1781 37.964 9.15846 37.4396 8.41061Z" fill="#FF9900"/>
<path d="M17.5884 45.0637C14.8301 42.9465 12.7033 40.1397 11.3922 36.9639L13.3152 37.8769C14.131 38.2752 15.112 37.9254 15.5003 37.0999C15.8986 36.2841 15.5489 35.3031 14.7233 34.9148L9.42061 32.3799C8.60485 31.9817 7.62384 32.3314 7.23549 33.1569L4.70063 38.4694C4.30237 39.2852 4.6521 40.2662 5.47763 40.6545C6.29338 41.0528 7.2744 40.7031 7.66275 39.8775L8.42021 38.2848C9.95468 41.9656 12.4021 45.1996 15.5974 47.6568C16.3161 48.2007 17.3359 48.0745 17.8991 47.3558C18.4431 46.6369 18.3071 45.6171 17.5884 45.0637Z" fill="#FF9900"/>
<path d="M50.745 30.6218C49.8516 30.5052 49.0261 31.1365 48.9095 32.0397C48.4531 35.4873 47.0836 38.7311 44.9859 41.4505L44.8208 39.3235C44.7528 38.4203 43.9661 37.7405 43.0532 37.8182C42.15 37.8862 41.4702 38.6728 41.5479 39.5858L42.014 45.4517C42.0821 46.3549 42.8687 47.0347 43.7817 46.9571L49.6476 46.4909C50.5508 46.4228 51.2306 45.6362 51.1529 44.7233C51.0849 43.8201 50.2983 43.1403 49.3853 43.2179L47.6566 43.3539C50.0749 40.1975 51.6385 36.4487 52.1629 32.4572C52.2697 31.5445 51.6482 30.7384 50.745 30.6218Z" fill="#FF9900"/>
</g>
<defs>
<clipPath id="clip0_1_6100">
<rect width="59" height="59" fill="white"/>
</clipPath>
</defs>
</svg>
