<svg width="4" height="2" viewBox="0 0 4 2" fill="none" xmlns="http://www.w3.org/2000/svg">
<path d="M0.95143 1.81938H0.893174C0.827254 1.80814 0.76902 1.77501 0.73092 1.72705C0.69282 1.6791 0.677878 1.62013 0.689282 1.56275C0.781419 1.15009 1.04343 0.780514 1.42654 0.522791C1.80965 0.265067 2.28777 0.136764 2.7719 0.161762C2.83929 0.163956 2.90299 0.18899 2.94929 0.231479C2.9956 0.273969 3.0208 0.330508 3.01948 0.388941C3.01954 0.418212 3.01269 0.447187 2.99934 0.474078C2.986 0.500969 2.96645 0.525212 2.94189 0.545311C2.91734 0.565409 2.8883 0.580932 2.85656 0.590942C2.82482 0.600951 2.79105 0.605233 2.75733 0.603511C2.39556 0.584787 2.0381 0.679459 1.75021 0.870248C1.46233 1.06104 1.26324 1.33521 1.1893 1.64269C1.17763 1.69073 1.14799 1.73409 1.10498 1.76604C1.06197 1.79798 1.00799 1.81673 0.95143 1.81938Z" fill="#EBEBEB"/>
</svg>
