<svg width="4" height="3" viewBox="0 0 4 3" fill="none" xmlns="http://www.w3.org/2000/svg">
<path d="M1.03911 2.13346H0.95658C0.925008 2.12449 0.895841 2.1101 0.87082 2.09115C0.845798 2.07221 0.825433 2.04909 0.810938 2.02318C0.796442 1.99727 0.788112 1.96909 0.786445 1.94033C0.784777 1.91157 0.789808 1.88282 0.801234 1.85578C0.979067 1.4616 1.27889 1.11754 1.66773 0.861467C2.05656 0.605388 2.51936 0.447198 3.00521 0.404297C3.06103 0.410022 3.11304 0.431731 3.15302 0.465977C3.19299 0.500223 3.21863 0.545051 3.22587 0.593356C3.23312 0.64166 3.22156 0.690672 3.19302 0.732637C3.16448 0.774601 3.12059 0.807113 3.06832 0.825016C2.67877 0.861072 2.30753 0.987057 1.9933 1.18982C1.67907 1.39258 1.43337 1.66469 1.28184 1.97778C1.26547 2.02259 1.23318 2.06177 1.18959 2.08973C1.146 2.11768 1.09333 2.13299 1.03911 2.13346Z" fill="#EBEBEB"/>
</svg>
