<svg width="3" height="3" viewBox="0 0 3 3" fill="none" xmlns="http://www.w3.org/2000/svg">
<path d="M0.524718 2.26694C0.495768 2.27088 0.466285 2.27088 0.437335 2.26694C0.373997 2.24696 0.322239 2.20622 0.293189 2.15351C0.264138 2.10079 0.260116 2.04031 0.281989 1.98506C0.476915 1.59027 0.790583 1.24807 1.19023 0.994232C1.58988 0.740388 2.06084 0.58421 2.55393 0.541992C2.60944 0.548403 2.66091 0.570623 2.70025 0.605162C2.73959 0.639701 2.76456 0.6846 2.77123 0.732785C2.7779 0.780969 2.7659 0.829697 2.73711 0.871321C2.70831 0.912945 2.66437 0.945101 2.61219 0.962711C2.21327 0.996277 1.8318 1.12108 1.50681 1.32437C1.18183 1.52766 0.924995 1.80213 0.762595 2.11969C0.744299 2.16193 0.711902 2.19849 0.669538 2.22471C0.627174 2.25094 0.576758 2.26564 0.524718 2.26694Z" fill="#EBEBEB"/>
</svg>
