<svg width="17" height="18" viewBox="0 0 17 18" fill="none" xmlns="http://www.w3.org/2000/svg">
<path d="M2.5488 4.44387C2.5488 4.44387 2.81095 6.43387 4.28188 6.96818C4.28188 6.96818 3.11677 8.35234 4.845 8.95818V7.88955L5.56835 9.11384C5.56835 9.11384 3.53427 16.2661 7.06355 16.2661C7.67776 16.2747 8.27528 16.0927 8.74809 15.7528C8.74809 15.7528 9.29181 17.6208 12.5589 17.6208C15.8261 17.6208 16.4426 14.8482 16.4426 14.8482C16.4426 14.8482 14.2629 15.4204 14.2629 13.4515C14.2629 11.4825 14.0978 5.15488 13.9765 4.19564C13.7568 3.186 13.1646 2.26552 12.2891 1.57276C11.4135 0.880005 10.302 0.452459 9.12189 0.354476C6.57323 0.0894236 3.26726 0.106253 1.35456 2.38655C-0.558148 4.66685 2.17014 5.30634 2.17014 5.30634C2.17014 5.30634 2.23325 5.2264 2.5488 4.44387Z" fill="#263238"/>
</svg>
