<svg width="2" height="2" viewBox="0 0 2 2" fill="none" xmlns="http://www.w3.org/2000/svg">
<path d="M0.330566 0.741284C0.330566 0.835311 0.362738 0.927227 0.423016 1.00541C0.483293 1.08359 0.56897 1.14453 0.669208 1.18051C0.769445 1.21649 0.879745 1.22591 0.986156 1.20756C1.09257 1.18922 1.19031 1.14394 1.26703 1.07745C1.34375 1.01096 1.396 0.926256 1.41716 0.834035C1.43833 0.741814 1.42747 0.646221 1.38595 0.55935C1.34443 0.47248 1.27411 0.398232 1.1839 0.345993C1.09369 0.293754 0.987633 0.265869 0.879137 0.265869C0.733647 0.265869 0.594115 0.315961 0.491239 0.405118C0.388362 0.494275 0.330566 0.615196 0.330566 0.741284Z" fill="#263238"/>
</svg>
