<svg width="8" height="6" viewBox="0 0 8 6" fill="none" xmlns="http://www.w3.org/2000/svg">
<path d="M7.36442 2.89575C7.36538 3.44762 7.17742 3.98733 6.82434 4.44659C6.47126 4.90585 5.96893 5.26402 5.3809 5.47579C4.79286 5.68756 4.14555 5.74339 3.52089 5.63624C2.89623 5.52909 2.32228 5.26376 1.87167 4.87383C1.42106 4.4839 1.11403 3.98689 0.98945 3.44569C0.864866 2.90449 0.928314 2.34343 1.17178 1.83349C1.41524 1.32356 1.82777 0.88767 2.35717 0.580984C2.88657 0.274298 3.50905 0.110596 4.14583 0.110596C4.99861 0.110595 5.81653 0.403897 6.41999 0.926095C7.02346 1.44829 7.36313 2.1567 7.36442 2.89575Z" fill="#263238"/>
</svg>
