<svg width="4" height="1" viewBox="0 0 4 1" fill="none" xmlns="http://www.w3.org/2000/svg">
<path d="M0.475635 0.950743C0.434725 0.951467 0.394244 0.943399 0.357815 0.927247C0.321387 0.911095 0.290147 0.887361 0.266888 0.858184C0.22898 0.810006 0.214357 0.750879 0.226154 0.693469C0.237951 0.636059 0.275227 0.584943 0.329996 0.551068C0.776014 0.308166 1.2851 0.165891 1.81083 0.137231C2.33657 0.108571 2.86222 0.194431 3.33984 0.386981C3.37061 0.398407 3.39844 0.415024 3.42173 0.435861C3.44502 0.456697 3.4633 0.481337 3.47549 0.508351C3.48769 0.535366 3.49357 0.564218 3.49278 0.593219C3.492 0.62222 3.48456 0.650791 3.47091 0.677278C3.44233 0.729663 3.39172 0.770599 3.32946 0.791715C3.26719 0.812831 3.19797 0.812527 3.13595 0.790868C2.73735 0.631061 2.29954 0.558617 1.86104 0.579892C1.42254 0.601167 0.9968 0.715514 0.621274 0.91288C0.578239 0.937929 0.527474 0.951125 0.475635 0.950743Z" fill="#EBEBEB"/>
</svg>
