<svg width="2" height="2" viewBox="0 0 2 2" fill="none" xmlns="http://www.w3.org/2000/svg">
<path d="M1.10226 0.837993C1.10214 0.920285 1.07418 1.00074 1.02183 1.0694C0.969484 1.13805 0.895054 1.1919 0.807753 1.22427C0.720452 1.25664 0.624116 1.26611 0.530668 1.25151C0.437219 1.23691 0.350758 1.19888 0.281998 1.14212C0.213237 1.08537 0.165202 1.01239 0.143818 0.932208C0.122435 0.85203 0.12865 0.768181 0.1617 0.691035C0.194749 0.613888 0.25317 0.546834 0.329747 0.498175C0.406324 0.449516 0.497684 0.421389 0.59252 0.417275C0.658284 0.414421 0.724038 0.423188 0.785767 0.443049C0.847497 0.462911 0.903925 0.493454 0.951607 0.532809C0.999288 0.572164 1.03723 0.619516 1.06313 0.671981C1.08903 0.724446 1.10234 0.780928 1.10226 0.837993Z" fill="#263238"/>
</svg>
