<svg width="6" height="5" viewBox="0 0 6 5" fill="none" xmlns="http://www.w3.org/2000/svg">
<path d="M4.80102 1.58819C4.38832 1.02879 3.82744 0.562889 3.16503 0.229272C2.9508 0.142823 2.71887 0.0941677 2.48274 0.0861459C2.24661 0.0781242 2.01101 0.110892 1.78963 0.182544C1.56826 0.254195 1.36554 0.3633 1.19328 0.503501C1.02103 0.643702 0.882677 0.812204 0.786286 0.999189C0.602339 1.32875 0.504032 1.68927 0.498312 2.05534C0.492592 2.4214 0.579592 2.7841 0.753174 3.11786C0.926756 3.45162 1.1827 3.74832 1.50296 3.98705C1.82322 4.22578 2.20001 4.40073 2.60675 4.49957C2.76591 4.53719 2.92823 4.56391 3.09221 4.5795C3.54723 4.61519 4.00178 4.50709 4.37204 4.27512C4.7423 4.04316 5.00329 3.70299 5.10686 3.31735C5.17062 3.11858 5.20487 2.91358 5.2088 2.70731C5.21342 2.30621 5.0706 1.91425 4.80102 1.58819Z" fill="#6A0DAD"/>
</svg>
