<svg width="21" height="39" viewBox="0 0 21 39" fill="none" xmlns="http://www.w3.org/2000/svg">
<path d="M0.373769 2.54155C0.373769 2.54155 -0.111689 6.1976 3.40788 7.62383C4.10385 7.94071 4.84486 8.17694 5.61187 8.32643C5.61187 8.32643 8.49063 23.2031 9.01007 24.3138C9.52951 25.4244 17.2629 38.1133 17.2629 38.1133C17.2629 38.1133 20.3212 38.6687 20.9621 36.603C20.9621 36.603 20.2873 33.8935 19.4329 30.9359C18.7144 28.4452 17.8697 25.6264 16.389 24.2464C15.8215 23.7332 15.5094 23.0472 15.5201 22.3364C15.5832 19.9172 15.7094 14.8392 15.7337 13.4718C15.7725 11.6543 16.5541 5.86102 15.2045 3.52182L11.0393 0.223389L0.373769 2.54155Z" fill="#455A64"/>
</svg>
