<svg width="13" height="9" viewBox="0 0 13 9" fill="none" xmlns="http://www.w3.org/2000/svg">
<path d="M1.12103 2.16322C1.62357 2.45574 2.22 2.60301 2.82498 2.58394C2.82498 2.58394 2.53856 1.61207 3.3687 1.2839C4.19883 0.955744 5.52413 0.522414 5.79599 0.913683C5.98771 1.36125 6.09269 1.8332 6.10668 2.31046C6.10668 2.31046 8.0825 3.86292 9.54858 4.30047C11.0147 4.73801 12.9468 5.18397 12.7623 6.35777C12.5778 7.53158 10.3933 9.23129 7.42227 8.06169C4.45127 6.89209 3.91726 6.85003 2.96577 6.72381C2.01427 6.59759 0.242346 6.66491 0.315165 5.28916C0.387984 3.91341 0.252055 1.63732 1.04335 1.4522L1.12103 2.16322Z" fill="#455A64"/>
</svg>
