<svg width="27" height="16" viewBox="0 0 27 16" fill="none" xmlns="http://www.w3.org/2000/svg">
<path d="M24.7864 6.04873C24.7864 6.04873 26.9854 6.33902 26.9854 8.88437C26.9854 11.4297 21.5825 12.5825 19.0243 13.4029C17.5679 13.8783 15.5922 14.543 14.2087 15.0227C13.6763 15.2061 13.0957 15.2585 12.5312 15.1738C11.9666 15.0892 11.44 14.8709 11.0097 14.543C8.3147 12.5007 5.87418 10.2192 3.72813 7.73581C3.72813 7.73581 0.64075 6.78919 0.732983 4.1597C0.825216 1.5302 2.67473 0.793945 2.67473 0.793945V1.66904C2.67451 1.95514 2.75012 2.23746 2.89573 2.49423C3.04134 2.751 3.25305 2.97535 3.51453 3.14997L4.13105 3.57069C4.19909 3.61626 4.27853 3.64732 4.36297 3.66138C4.44741 3.67544 4.53448 3.6721 4.61715 3.65163C4.69983 3.63116 4.7758 3.59413 4.83892 3.54352C4.90205 3.49292 4.95057 3.43018 4.98056 3.36033C5.19416 2.85547 5.56794 2.19915 6.12619 1.98038C7.07279 1.61014 6.74269 3.20466 6.50483 3.96616C6.36324 4.40256 6.2994 4.85515 6.31552 5.30826L13.233 10.6051C13.233 10.6051 20.8252 7.1426 24.7864 6.04873Z" fill="#FFA8A7"/>
</svg>
