<svg width="4" height="1" viewBox="0 0 4 1" fill="none" xmlns="http://www.w3.org/2000/svg">
<path d="M0.40255 0.858458C0.361567 0.859566 0.320926 0.851661 0.284423 0.835476C0.24792 0.81929 0.216745 0.795352 0.193803 0.765899C0.155394 0.718229 0.139987 0.659454 0.150869 0.602082C0.161751 0.544711 0.198063 0.493289 0.252059 0.458783C0.698077 0.215881 1.20716 0.0736057 1.7329 0.0449456C2.25863 0.0162855 2.78427 0.102146 3.2619 0.294696C3.29377 0.306299 3.3227 0.323235 3.34703 0.344526C3.37135 0.365816 3.3906 0.39105 3.40367 0.418788C3.41675 0.446526 3.42339 0.476223 3.42322 0.506186C3.42305 0.536148 3.41607 0.565791 3.40268 0.593416C3.38929 0.621041 3.36976 0.646109 3.34519 0.667191C3.32063 0.688273 3.29151 0.704946 3.2595 0.716275C3.2275 0.727605 3.19323 0.733358 3.15865 0.73321C3.12408 0.733063 3.08988 0.727018 3.05801 0.715415C2.65952 0.555246 2.22164 0.482595 1.78306 0.503874C1.34449 0.525154 0.918706 0.639711 0.543333 0.837427C0.499722 0.856041 0.450836 0.86334 0.40255 0.858458Z" fill="#EBEBEB"/>
</svg>
