<svg width="2" height="1" viewBox="0 0 2 1" fill="none" xmlns="http://www.w3.org/2000/svg">
<path d="M1.80099 0.577213C1.80099 0.660423 1.77252 0.741766 1.71918 0.810953C1.66584 0.88014 1.59002 0.934068 1.50131 0.965911C1.4126 0.997754 1.315 1.00608 1.22083 0.98985C1.12666 0.973616 1.04016 0.933545 0.972266 0.874707C0.904374 0.815868 0.858137 0.740906 0.839405 0.659295C0.820674 0.577683 0.830292 0.493091 0.867035 0.416214C0.903778 0.339338 0.966004 0.273628 1.04584 0.227399C1.12567 0.18117 1.21952 0.156494 1.31553 0.156494C1.44428 0.156494 1.56777 0.200819 1.65881 0.27972C1.74985 0.35862 1.80099 0.465631 1.80099 0.577213Z" fill="#263238"/>
</svg>
