<svg width="11" height="10" viewBox="0 0 11 10" fill="none" xmlns="http://www.w3.org/2000/svg">
<path d="M9.77695 0.705811C9.28256 0.77742 8.81436 0.948259 8.40976 1.20467C8.00515 1.46108 7.67536 1.79596 7.44674 2.18254C6.68942 3.49518 5.26703 7.1933 3.94173 5.96901L4.39322 4.93824C4.39322 4.93824 -0.912845 5.94376 0.354201 7.14702C1.62125 8.35027 5.59714 8.88458 5.93211 8.47228C6.26708 8.05997 8.06328 5.10653 8.06328 5.10653L9.05846 9.04866C9.20327 9.15759 9.38859 9.21758 9.58034 9.21758C9.77209 9.21758 9.95738 9.15759 10.1022 9.04866C10.1022 9.04866 11.3984 1.48414 9.77695 0.705811Z" fill="#6A0DAD"/>
</svg>
