<svg width="14" height="18" viewBox="0 0 14 18" fill="none" xmlns="http://www.w3.org/2000/svg">
<path d="M13.4859 14.132L10.3498 12.5165C10.3498 12.5165 8.35461 10.3329 6.73804 8.38923C5.12146 6.44551 4.44182 5.44419 4.44182 5.44419C4.95008 4.77365 5.24484 3.9986 5.29623 3.19756C5.29623 2.02796 5.22341 1.47261 5.47584 1.03927C5.72828 0.60593 5.47584 0.147346 4.80105 0.332462C4.12626 0.517579 3.62624 1.77553 3.83013 2.59593L0.0629883 4.48916C0.0629883 4.48916 0.689218 5.94065 1.55333 6.618C1.55333 6.618 5.00495 13.8249 6.35452 14.9945C7.7041 16.1641 10.0634 17.7502 10.0634 17.7502L13.4859 14.132Z" fill="#945959"/>
</svg>
