<svg width="9" height="11" viewBox="0 0 9 11" fill="none" xmlns="http://www.w3.org/2000/svg">
<path d="M1.48095 0.930284C1.60029 1.16047 1.76451 1.37111 1.96641 1.55295C2.01479 1.58835 2.07335 1.61169 2.13584 1.62049C2.19833 1.62929 2.26241 1.62321 2.32123 1.60291C2.38005 1.58261 2.4314 1.54884 2.4698 1.50522C2.5082 1.46159 2.5322 1.40974 2.53925 1.35521C2.54503 1.21599 2.59292 1.08052 2.67812 0.962382C2.76332 0.844243 2.88284 0.747575 3.02471 0.682061C3.35967 0.560053 6.03455 0.517985 6.05882 0.989191C6.06003 1.34546 6.01772 1.70084 5.9326 2.0494C5.9326 2.0494 6.36466 5.23844 7.18509 6.5006C8.00551 7.76276 9.34537 9.80325 6.52486 10.4007C3.70435 10.9981 1.57319 9.70227 1.4761 7.97733C1.379 6.25238 1.42755 5.0323 1.23822 4.73359C1.04889 4.43488 0.0537022 4.2792 0.43236 2.70151C0.811017 1.12381 0.869273 0.177195 1.59746 0.126709L1.48095 0.930284Z" fill="#455A64"/>
</svg>
