<svg width="18" height="21" viewBox="0 0 18 21" fill="none" xmlns="http://www.w3.org/2000/svg">
<path d="M7.17506 0.447754L11.4762 0.632871L14.287 0.754883L14.7725 6.51452C14.7725 6.51452 14.0297 9.84241 13.4618 11.012C12.8938 12.1816 16.6221 16.9904 17.2289 18.5303C17.2289 18.5303 14.8453 18.8079 13.6365 16.4267C13.0887 17.5678 12.155 18.5383 10.9583 19.2105C9.76151 19.8826 8.35792 20.2249 6.93233 20.1921C3.505 20.1921 1.59229 17.6972 1.59229 17.6972L2.37387 13.49C1.898 12.2034 1.63486 10.8649 1.59229 9.51425C1.59229 9.51425 -0.349537 8.89579 0.0922296 6.40514C0.533997 3.91448 5.91773 0.460375 5.91773 0.460375L7.17506 0.447754Z" fill="#6A0DAD"/>
</svg>
