<svg width="14" height="13" viewBox="0 0 14 13" fill="none" xmlns="http://www.w3.org/2000/svg">
<path d="M2.63624 10.9474L3.30132 9.15517C3.35142 9.1921 3.41267 9.21584 3.47783 9.22358C3.54299 9.23132 3.60935 9.22274 3.66907 9.19885C3.72879 9.17496 3.77937 9.13677 3.81485 9.08877C3.85033 9.04078 3.86923 8.98499 3.86931 8.92799V5.75156C3.86931 5.75156 5.57812 5.33084 5.3985 4.08972C5.3985 4.08972 6.27232 4.76708 9.62198 4.76708C12.9716 4.76708 13.7872 2.30587 13.4523 0.934326C13.4523 0.934326 12.8309 1.48967 11.0589 1.48967C9.28702 1.48967 1.91291 -0.437219 1.72358 3.42498C1.72358 3.42498 1.09734 2.63403 0.0924407 3.42498L1.38861 4.10654C1.38861 4.10654 -0.145434 4.06447 0.0924407 6.0124C0.281769 7.55223 1.01967 10.4678 1.32551 11.6332C1.41208 11.9557 1.63568 12.2381 1.95174 12.4242L2.63624 12.8238V10.9474Z" fill="#263238"/>
</svg>
