<svg width="4" height="2" viewBox="0 0 4 2" fill="none" xmlns="http://www.w3.org/2000/svg">
<path d="M0.819874 1.41516C0.779176 1.41484 0.739127 1.40631 0.702894 1.39024C0.666662 1.37418 0.635243 1.35102 0.611126 1.3226C0.573218 1.27442 0.558596 1.2153 0.570393 1.15789C0.58219 1.10048 0.619466 1.04935 0.674235 1.01547C1.11967 0.771539 1.62859 0.628327 2.15441 0.598927C2.68023 0.569527 3.20617 0.654881 3.68408 0.847189C3.74571 0.871986 3.79381 0.916559 3.81826 0.971499C3.84272 1.02644 3.8416 1.08746 3.81515 1.1417C3.78663 1.1951 3.7349 1.23657 3.67124 1.25706C3.60758 1.27755 3.53717 1.27539 3.47533 1.25108C3.0779 1.09018 2.64067 1.01711 2.20271 1.0384C1.76474 1.0597 1.33968 1.17468 0.965509 1.37309C0.924027 1.40127 0.872569 1.41614 0.819874 1.41516Z" fill="#EBEBEB"/>
</svg>
