<svg width="2" height="2" viewBox="0 0 2 2" fill="none" xmlns="http://www.w3.org/2000/svg">
<path d="M0.24758 1.06961C0.24662 1.16399 0.278097 1.25648 0.338003 1.33531C0.39791 1.41413 0.483532 1.47572 0.583966 1.51222C0.684399 1.54872 0.795097 1.55849 0.901959 1.54028C1.00882 1.52207 1.10701 1.47671 1.18402 1.40997C1.26103 1.34323 1.31338 1.25813 1.33439 1.16552C1.3554 1.07291 1.34413 0.976977 1.302 0.889937C1.25988 0.802897 1.18882 0.728689 1.09787 0.676772C1.00692 0.624854 0.900195 0.597576 0.791291 0.598407C0.719889 0.598407 0.649188 0.610594 0.583221 0.634274C0.517255 0.657954 0.457319 0.692662 0.40683 0.736417C0.356342 0.780172 0.31629 0.832119 0.288966 0.889288C0.261641 0.946458 0.24758 1.00773 0.24758 1.06961Z" fill="#263238"/>
</svg>
