<svg width="6" height="6" viewBox="0 0 6 6" fill="none" xmlns="http://www.w3.org/2000/svg">
<path d="M5.1362 3.00929C5.13524 3.44846 4.9841 3.87753 4.70186 4.24228C4.41963 4.60704 4.01897 4.8911 3.55052 5.05859C3.08207 5.22608 2.56684 5.26947 2.06995 5.18328C1.57305 5.0971 1.11679 4.8852 0.758806 4.57436C0.400819 4.26353 0.157173 3.86771 0.0586633 3.43691C-0.0398463 3.00612 0.0112009 2.55969 0.205347 2.15403C0.399492 1.74836 0.72802 1.40168 1.14943 1.15777C1.57085 0.913867 2.06623 0.783692 2.57298 0.783691C2.90999 0.783691 3.2437 0.841285 3.555 0.953183C3.86631 1.06508 4.14908 1.22909 4.38716 1.43581C4.62524 1.64253 4.81395 1.88791 4.94247 2.15791C5.071 2.42791 5.13683 2.71722 5.1362 3.00929Z" fill="#263238"/>
</svg>
