<svg width="10" height="12" viewBox="0 0 10 12" fill="none" xmlns="http://www.w3.org/2000/svg">
<path d="M2.5391 7.96076C2.92094 7.79292 3.22934 7.52189 3.41765 7.18866C3.60596 6.85544 3.66394 6.47812 3.58284 6.11379C3.39351 4.71701 2.1653 1.93606 3.77217 0.959987C4.4858 0.539268 6.06838 2.41567 7.40825 4.67493C8.74811 6.93419 9.12677 7.59052 9.12677 7.59052C9.12677 7.59052 8.98114 8.19636 8.36946 8.1669L5.43243 5.53741C5.24314 6.34026 5.27474 7.17046 5.52467 7.96076C5.95187 9.19346 6.01013 9.90868 4.46151 10.5061C2.9129 11.1035 -1.32515 11.9197 0.941941 9.44168C1.39003 8.8845 1.92788 8.3858 2.5391 7.96076Z" fill="#6A0DAD"/>
</svg>
