<svg width="35" height="35" viewBox="0 0 35 35" fill="none" xmlns="http://www.w3.org/2000/svg">
<g clip-path="url(#clip0_745_3845)">
<path d="M21.0383 26.2182C20.4685 26.2182 19.813 26.1473 19.1067 25.9239C18.9435 25.869 18.7977 25.8276 18.6385 25.7834C18.1142 25.6349 17.3985 25.4303 16.6106 24.9928C9.949 21.2875 7.58533 16.6952 7.58533 13.8901C7.58533 11.5492 8.80663 10.2677 9.26545 9.78615C9.87944 9.1347 10.7636 8.82837 11.3522 8.82837C13.3668 8.82837 13.8978 9.35943 14.473 10.9566C14.6563 11.4649 14.9051 12.1605 15.404 13.1544C16.1197 14.5884 15.4361 15.3602 13.1688 17.9206L12.5882 18.5787C13.5942 19.6983 14.988 20.8902 16.8835 22.0553C17.2286 21.6152 17.5296 21.2273 17.7958 20.8862C19.8572 18.2403 20.3494 17.6115 21.8904 18.1827C21.9199 18.1934 25.5744 19.5418 26.0573 20.414C26.4118 21.0561 26.4506 22.3349 25.8433 23.5375C24.7343 25.7272 22.891 26.0188 22.1968 26.1299C21.8757 26.1753 21.4838 26.2182 21.0383 26.2182ZM19.3756 23.2111C19.5789 23.2686 19.7689 23.3234 19.9414 23.3823C20.6424 23.603 21.3032 23.5535 21.8008 23.4826C22.4282 23.3836 23.002 23.2258 23.4568 22.3295C23.5398 22.165 23.5866 22.0072 23.6107 21.8734C22.9499 21.5523 21.8302 21.0534 21.2697 20.8153C20.9688 21.1658 20.4819 21.7918 19.9067 22.5288C19.7448 22.7389 19.5682 22.9663 19.3756 23.2111ZM11.3522 11.5037C11.3843 11.5077 11.284 11.5519 11.2479 11.58C10.8493 12.0013 10.2607 12.6193 10.2607 13.8901C10.2607 14.4841 10.4627 15.3388 10.9951 16.3421L11.1663 16.1481C11.9702 15.2425 12.631 14.4948 12.8972 14.1175C12.4023 13.1036 12.1361 12.3638 11.9555 11.8622C11.906 11.7271 11.8699 11.6121 11.8324 11.5131C11.7294 11.5077 11.5756 11.5037 11.3522 11.5037Z" fill="#FF9900"/>
<path d="M2.23467 34.2441C1.88152 34.2441 1.53774 34.1037 1.28224 33.8455C0.946484 33.5057 0.818067 33.0121 0.945146 32.552L2.9744 25.1801C0.264269 20.1223 0.356569 14.1696 3.25264 9.14399C6.26241 3.92171 11.6546 0.802246 17.6755 0.802246C22.0818 0.802246 26.27 2.50511 29.4697 5.59915C29.5661 5.69279 29.6477 5.79847 29.7105 5.91351C32.6976 9.01558 34.3389 13.0781 34.3389 17.3934C34.3362 23.2658 31.3104 28.5737 26.2446 31.5929C21.2751 34.5545 15.3158 34.7765 10.1952 32.2122L2.57176 34.2C2.46073 34.2294 2.34703 34.2441 2.23467 34.2441ZM10.3557 29.4512C10.5764 29.4512 10.7945 29.5061 10.9924 29.6118C15.3787 31.9808 20.5675 31.8617 24.8748 29.2961C29.1246 26.7625 31.6609 22.3134 31.6635 17.3934C31.6635 13.6774 30.2122 10.1847 27.5756 7.55885C27.4953 7.47859 27.4285 7.39164 27.3723 7.298C24.7063 4.83133 21.2751 3.4776 17.6755 3.4776C12.6231 3.4776 8.09636 6.09543 5.56949 10.4803C3.06135 14.8331 3.06001 20.0126 5.56548 24.336C5.74606 24.6463 5.79288 25.0155 5.69791 25.362L4.13952 31.027L10.0199 29.4941C10.1296 29.466 10.242 29.4512 10.3557 29.4512Z" fill="#6A0DAD"/>
</g>
<defs>
<clipPath id="clip0_745_3845">
<rect width="33.4419" height="33.4419" fill="white" transform="translate(0.896973 0.802246)"/>
</clipPath>
</defs>
</svg>
